<svg id="Layer_1" data-name="Layer 1" xmlns="http://www.w3.org/2000/svg" xmlns:xlink="http://www.w3.org/1999/xlink" viewBox="0 0 21.79 6.69">
  <defs>
    <style>
      .cls-1 {
        fill: url(#Degradado_sin_nombre_2);
      }
    </style>
    <linearGradient id="Degradado_sin_nombre_2" data-name="Degradado sin nombre 2" x1="13.18" y1="8.98" x2="7.79" y2="-0.37" gradientUnits="userSpaceOnUse">
      <stop offset="0" stop-color="#d29a45"/>
      <stop offset="0.11" stop-color="#d69e4b"/>
      <stop offset="0.26" stop-color="#e1a95b"/>
      <stop offset="0.42" stop-color="#f3bc77"/>
      <stop offset="0.5" stop-color="#fdc686"/>
      <stop offset="0.59" stop-color="#f9c181"/>
      <stop offset="0.7" stop-color="#eeb372"/>
      <stop offset="0.82" stop-color="#dc9b59"/>
      <stop offset="0.95" stop-color="#c27b36"/>
      <stop offset="1" stop-color="#b76d27"/>
    </linearGradient>
  </defs>
  <path class="cls-1" d="M10.43,3.25a7.34,7.34,0,0,1,1.12.58,7.21,7.21,0,0,1,1.09,1,.8.8,0,0,1,.1,1,.82.82,0,0,1-.91.3,3.78,3.78,0,0,1-2.05-1c-.51-.44-.93-1-1.39-1.46-.07-.07-.18-.17-.25-.16-1.22.27-2.44.54-3.64.9.53.12,1.06.22,1.59.35a2.22,2.22,0,0,1,1.25.78A.63.63,0,0,1,7,6.59a2.34,2.34,0,0,1-1.83-.21A24,24,0,0,1,3,5.1.46.46,0,0,0,2.48,5L.65,5.92a1.35,1.35,0,0,1-.3.14A1.4,1.4,0,0,1,0,6c.05-.1.08-.25.17-.29.66-.38,1.32-.77,2-1.1A1.15,1.15,0,0,0,2.78,4c.2-.44.41-.88.65-1.31A3.64,3.64,0,0,1,5.19,1.16.72.72,0,0,1,6,1.21a.72.72,0,0,1,.06.87A3.89,3.89,0,0,1,4.79,3.56a.54.54,0,0,0-.2.2l.29-.06C6,3.46,7,3.23,8.07,3a1,1,0,0,0,.53-.35A8.09,8.09,0,0,1,11.34.31a3.13,3.13,0,0,1,1-.3.76.76,0,0,1,.84.37.82.82,0,0,1-.13.91,4,4,0,0,1-1.52,1.2l-.23.12,2.86.09a.58.58,0,0,0,.34-.2A9.41,9.41,0,0,1,17.24.75,4.74,4.74,0,0,1,18.48.48a.72.72,0,0,1,.79.45.79.79,0,0,1-.28.88,4.18,4.18,0,0,1-1.85.94,1.14,1.14,0,0,0-.39.18c.54.09,1.09.17,1.63.27l3.1.59a.49.49,0,0,1,.17.06,1,1,0,0,1,.14.15c-.07,0-.14.12-.2.11L20.66,4l-3.9-.58a1.52,1.52,0,0,1-.36-.12v.12c.39.36.81.69,1.18,1.08a1.71,1.71,0,0,1,.39.71.89.89,0,0,1-.89,1.2,1.78,1.78,0,0,1-1.37-.61,6.69,6.69,0,0,1-1.43-2.32A.48.48,0,0,0,14,3.2c-1.14,0-2.28,0-3.42,0A.86.86,0,0,0,10.43,3.25ZM8.91,2.82a5.65,5.65,0,0,0,3.06-1A3,3,0,0,0,12.78,1c.21-.3,0-.56-.32-.54a2,2,0,0,0-.72.16A7.43,7.43,0,0,0,8.91,2.82Zm-.09.62a6.06,6.06,0,0,0,2.66,2.15c.26.09.71.13.83,0s-.05-.58-.26-.81A4.21,4.21,0,0,0,8.82,3.44Zm6-.22a5.31,5.31,0,0,0,1.29,2.26,2.07,2.07,0,0,0,.71.39.68.68,0,0,0,.58-.13.6.6,0,0,0,0-.57,5.48,5.48,0,0,0-1-1.13A3.15,3.15,0,0,0,14.83,3.22Zm.08-.51a6,6,0,0,0,3.21-.66,2.37,2.37,0,0,0,.63-.46.49.49,0,0,0,.13-.43c0-.1-.25-.17-.39-.19A1,1,0,0,0,18,1,8.61,8.61,0,0,0,14.91,2.71ZM3.37,4.8,3.32,5c.77.38,1.54.8,2.33,1.13a2.39,2.39,0,0,0,1.07.09c.35,0,.41-.2.17-.46a2.42,2.42,0,0,0-.67-.52A5.78,5.78,0,0,0,3.37,4.8Zm-.08-.68a7.72,7.72,0,0,0,2.1-1.58A1.7,1.7,0,0,0,5.72,2a1.41,1.41,0,0,0,0-.46,1.75,1.75,0,0,0-.46.05A3.86,3.86,0,0,0,3.29,4.12Z"/>
</svg>
