<svg id="Layer_1" data-name="Layer 1" xmlns="http://www.w3.org/2000/svg" xmlns:xlink="http://www.w3.org/1999/xlink" viewBox="0 0 152.46 151.46">
  <defs>
    <style>
      .cls-1 {
        fill: url(#Degradado_sin_nombre_2);
      }
    </style>
    <linearGradient id="Degradado_sin_nombre_2" data-name="Degradado sin nombre 2" x1="6363.71" y1="1192.4" x2="6306.86" y2="1093.93" gradientTransform="matrix(-0.94, -0.34, -0.34, 0.94, 6408.84, 1161.53)" gradientUnits="userSpaceOnUse">
      <stop offset="0" stop-color="#d29a45"/>
      <stop offset="0.11" stop-color="#d69e4b"/>
      <stop offset="0.26" stop-color="#e1a95b"/>
      <stop offset="0.42" stop-color="#f3bc77"/>
      <stop offset="0.5" stop-color="#fdc686"/>
      <stop offset="0.59" stop-color="#f9c181"/>
      <stop offset="0.7" stop-color="#eeb372"/>
      <stop offset="0.82" stop-color="#dc9b59"/>
      <stop offset="0.95" stop-color="#c27b36"/>
      <stop offset="1" stop-color="#b76d27"/>
    </linearGradient>
  </defs>
  <path class="cls-1" d="M151.81,95.56a5.3,5.3,0,0,1-3.29.22,4.94,4.94,0,0,0-3.18.48c-1,.53-2,1-3,1.42a7.57,7.57,0,0,0-2.84,2.33,1.59,1.59,0,0,1-.83.52c-1,.2-2.06.33-3.09.49l0-.15a8.24,8.24,0,0,0,1.11-.74c1.42-1.24,2.86-2.47,4.19-3.81a5.11,5.11,0,0,0,1-1.89c.51-1.42.92-2.86,1.35-4.3a1.69,1.69,0,0,0,0-.55,2,2,0,0,0-.51.22c-1.51,1.35-3,2.72-4.52,4.08a6.18,6.18,0,0,0-1.66,3.32,12.64,12.64,0,0,1-.56,2,2.81,2.81,0,0,1-2.53,1.87c-2.52.18-5,.44-7.64.67a4.85,4.85,0,0,1,1.8-1.51c.69-.33,1.4-.66,2.11-1a5.91,5.91,0,0,0,3.22-3.48c.78-1.81,1.48-3.66,2.27-5.47.3-.68.75-1.29,1.12-1.95.06-.11,0-.28,0-.42-.14,0-.34,0-.43.06a47.41,47.41,0,0,0-7.75,7.63,10.51,10.51,0,0,0-1.28,2.55,11.27,11.27,0,0,1-2.07,3.48.91.91,0,0,1-.48.32c-2.27.43-4.55.84-6.83,1.26a1,1,0,0,1-.21,0,3.13,3.13,0,0,1,1.86-2.45c.24-.11.47-.25.72-.34a6.17,6.17,0,0,0,3.89-4.29,28.34,28.34,0,0,0,.85-4.72c.06-.38.21-.74.26-1.12a1.8,1.8,0,0,0-.11-.59c-.14.13-.34.23-.42.39-.39.74-.71,1.51-1.11,2.24a6.4,6.4,0,0,1-2.45,2.31,6.44,6.44,0,0,0-3,3.33,18.26,18.26,0,0,0-.56,2.54c-.11.56-.14,1.13-.23,1.69-.16.93-.44,1.27-1.36,1.34-2.2.15-4.41.23-6.61.32-.66,0-1.32,0-2,0a4,4,0,0,1,3.08-2.17,4.37,4.37,0,0,0,3.86-3.33c.55-1.66,1.11-3.31,1.64-5a2.32,2.32,0,0,0,0-.72,7.49,7.49,0,0,0-3.73,2.89,8.08,8.08,0,0,1-2.65,2.89c-.56.31-1.17.55-1.76.83a4.22,4.22,0,0,0-2.32,1.87c-.16.33-.25.68-.39,1.06a7.06,7.06,0,0,1-1.52-3.3,6.6,6.6,0,0,0-.73-2.18c-.17-.36-.17-.58.12-.82a7.8,7.8,0,0,1,1-.77c1.57-.93,1.87-2.51,2.14-4.11,0-.09-.08-.2-.13-.3-.13.1-.32.18-.37.31a3.66,3.66,0,0,1-2.55,2.24,1.11,1.11,0,0,1-.19,0,4.65,4.65,0,0,1,1.28-2.7,9.35,9.35,0,0,0,2.24-5,3.44,3.44,0,0,0-.1-.63,4.15,4.15,0,0,0-.6.29,8.6,8.6,0,0,1-.94.68,10.24,10.24,0,0,0-3.71,2.71l-.14-.09a6.29,6.29,0,0,0,.43-.91,5.83,5.83,0,0,0,.16-.93,2.41,2.41,0,0,0-.84.45c-.79,1-1.53,2-2.32,3a1.5,1.5,0,0,0-.27-.22c-.67-.36-1.32-.76-2-1.06-.87-.37-1.77-.67-2.67-1-.72-.24-1.46-.43-2.18-.64.53-.18,1.12-.36,1.68-.59a13.08,13.08,0,0,0,5.54-3.65,7.73,7.73,0,0,0,1.52-3,3.54,3.54,0,0,0,0-.73l-.21,0a2.77,2.77,0,0,0-.22.46,9.73,9.73,0,0,1-5.34,5.86,32.48,32.48,0,0,1-9,2.6c-.66.12-1.34.42-2,0a9.12,9.12,0,0,0,1.85-1c.91-.8,2-.61,3-.85.28-.07.78-.27.77-.37,0-.49-.5-.24-.78-.28s-.71,0-1.15,0c.57-.6,1.06-1.16,1.59-1.67a1.13,1.13,0,0,1,.62-.17c.53,0,1.06,0,1.58-.08a1.38,1.38,0,0,0,.45-.2c-.14-.12-.26-.3-.42-.33-.49-.12-1-.18-1.47-.26a12.21,12.21,0,0,0,.35-1.42,2.72,2.72,0,0,0-2.67-3.17,7.39,7.39,0,0,0-5.14,2c-.12.1-.14.31-.2.47a1.52,1.52,0,0,0,.61.15c1.08-.13,2.16-.32,3.25-.44a2.89,2.89,0,0,1,2.9,1.16,5,5,0,0,1,.43,1.16c-4.56-.59-8.93.25-13.42.09.56-.45,1.06-.8,1.5-1.21.9-.87,1.82-1.74,2.64-2.67s.73-.9,1.88-.61a1.91,1.91,0,0,0,.67,0v-.24L80.79,78c-.24-.08-.49-.14-.69-.19.46-1.1,1-2.17,1.37-3.3a4,4,0,0,0-.61-3.88,2.73,2.73,0,0,0-2.73-1.12,2.62,2.62,0,0,0-.59.27l0,.18a2.64,2.64,0,0,0,.55.15c2.21.08,2.66,1.62,2.44,3.33a8.49,8.49,0,0,1-1.78,3.89.53.53,0,0,1-.37.2A26.83,26.83,0,0,0,70,79.16a30,30,0,0,0-7.25,3.25,10.77,10.77,0,0,1,4.16-2.76c1.52-.7,3.16-1.15,4.72-1.77a20.32,20.32,0,0,0-7.94,2.91l-.1-.2c.81-.5,1.6-1.06,2.45-1.48,1.57-.77,3.19-1.44,4.78-2.18a.94.94,0,0,0,.42-.52,15.19,15.19,0,0,0-8.57,2.89c.23-1.67,1.24-2.8,2-4A10.76,10.76,0,0,1,67.73,72a11.89,11.89,0,0,1,3.93-2c1.4-.36,2.83-.57,4.25-.93a13.8,13.8,0,0,0-4.06-.15A4.45,4.45,0,0,0,70,66a2.64,2.64,0,0,0-3.08.07,1,1,0,0,1-1,.19,3.63,3.63,0,0,1-1-.39l5.3-1.42-.05-.22a46.7,46.7,0,0,0-8.2,2.14,1.68,1.68,0,0,1,.71-1.44,2.65,2.65,0,0,0,.36-3.5c-.39-.59-.82-1.16-1.24-1.74s-.72-.27-1.07,0a3,3,0,0,0-.45,4.67,13.36,13.36,0,0,0,1.4,1A1.64,1.64,0,0,1,60.55,67a30.5,30.5,0,0,0-3,2l-2-1.89c.34-.28.79-.59,1.19-1s.43-.91-.25-1.11-1.62-.35-2.52-.53c-.15-.64-.74-.73-1.38-.66-.8.09-1.6.24-2.4.34a1.31,1.31,0,0,1-.55-.1l-2.64-1c.52-.64,1.06-1.33,1.64-2,.1-.11.38-.08.57-.07,1.19.07,2.38.19,3.57.21a7.1,7.1,0,0,0,3.45-1.08c.18-.1.44-.3.45-.46,0-.55.45-.67.81-.88,1.42-.83,2.86-1.63,4.26-2.5a4.67,4.67,0,0,0,1.1-1c.41-.51.22-.88-.45-1a9.49,9.49,0,0,0-3.68,0c-.4.06-.79.13-1.2.21.1-.79-.21-1.05-1-.72-1.25.55-2.46,1.18-3.73,1.8-.43-.51-.9-.24-1.31.13A11.16,11.16,0,0,0,48.32,60a7.27,7.27,0,0,1-1.08,1.66c.54-2.58,1-5.16,2.65-7.34a.67.67,0,0,1,.74-.32c2.28.23,3.95-.95,5.45-2.46.06-.06.13-.16.11-.21-.23-.69.36-1,.68-1.35.62-.75,1.27-1.47,1.86-2.24A2.61,2.61,0,0,0,59,47a2.26,2.26,0,0,0-.8-.09c-1,.24-2,.53-3,.8-.07-.13-.13-.39-.27-.47a.74.74,0,0,0-.57.09,6.88,6.88,0,0,0-.93.58,3.12,3.12,0,0,1-1,.47,2.63,2.63,0,0,0-1.2,1.12,6.52,6.52,0,0,0-1.35,4,.51.51,0,0,1-.12.32A19.27,19.27,0,0,0,47,59.31a14.77,14.77,0,0,1-.28-1.85c0-.21.31-.41.38-.64a12.5,12.5,0,0,0,.47-2.06c.09-1,.07-2,.07-3,0-.22-.11-.58-.25-.62-.46-.14-.49-.47-.53-.84a1.16,1.16,0,0,0-.07-.42c-.1-.2-.22-.51-.38-.54a.85.85,0,0,0-.67.27,5.63,5.63,0,0,0-.61,1c0-.19,0-.33,0-.46,0-.55-.07-1.1-.13-1.64a3.34,3.34,0,0,0-1.81-2.58,15.77,15.77,0,0,1-2-1.49c-.62-.49-1.2-1-1.89-1.61.85-.49,1.72-1,2.6-1.5.55-.31,1.11-.6,1.68-.88a3.6,3.6,0,0,1,2.38,0c1.13.21,2.27.38,3.4.61a1.39,1.39,0,0,1,.67.39,4.16,4.16,0,0,1,.54.88,3.46,3.46,0,0,0,3.53,1.9c1.35,0,2.71-.09,4.06-.15a.53.53,0,0,0,.39-.2.57.57,0,0,0-.11-.44,8.21,8.21,0,0,0-8.21-2.93,5.23,5.23,0,0,1-1.24,0,8.23,8.23,0,0,1,5.62-1.08c1.6.21,3.23.21,4.84.29a1.13,1.13,0,0,0,.67-.19,1.64,1.64,0,0,0-.44-.15,35.65,35.65,0,0,1-6.52-.55,7,7,0,0,0-1.07,0c.62-.41,1.14-.77,1.68-1.1a.64.64,0,0,1,.44-.1,6.16,6.16,0,0,0,5.44-1,25.57,25.57,0,0,0,3.22-2.78.7.7,0,0,0,.2-.61.71.71,0,0,0-.59-.25c-1.39.21-2.77.42-4.14.69A6.25,6.25,0,0,0,55,35.8,8.51,8.51,0,0,1,53.58,37a26.09,26.09,0,0,1-2.73,1.84,19,19,0,0,1-3,1.25,4.46,4.46,0,0,1-1.37,0c.65-.46,1.17-.82,1.68-1.2a10.58,10.58,0,0,0,2.47-3.65,4.74,4.74,0,0,1,1.83-1.91,13.37,13.37,0,0,0,3.28-2.51,3.68,3.68,0,0,1,1-.68,1.32,1.32,0,0,1,1.66.07,2.16,2.16,0,0,0,2.16.26,6.69,6.69,0,0,0,2-1,39.21,39.21,0,0,0,2.94-2.83c.11-.11.11-.35.16-.53-.15,0-.31-.14-.44-.11-1.42.26-2.84.53-4.25.83a4.46,4.46,0,0,0-2.55,1.67,2.88,2.88,0,0,1-2,1.09c.27-.59.54-1.21.82-1.81a.54.54,0,0,1,.29-.27c1.54-.21,2.35-1.36,3.17-2.47a10.9,10.9,0,0,0,1.77-5c.09-.62.23-1.24.29-1.86a2.39,2.39,0,0,0-.18-.71,2.2,2.2,0,0,0-.66.29c-1,.83-1.88,1.68-2.82,2.51A8.6,8.6,0,0,0,56.86,23a5.1,5.1,0,0,0-.22,3.29,3.13,3.13,0,0,1-.26,2.05,8.68,8.68,0,0,1-2.28,3.27,2.14,2.14,0,0,1-.54.32,5.06,5.06,0,0,0,.36-4.36c1.3-.56,1.59-1.71,1.71-2.93a17.23,17.23,0,0,0-.43-5.68c-.05-.19-.27-.35-.4-.53-.15.15-.35.27-.44.45-.67,1.2-1.37,2.4-2,3.64a4,4,0,0,0,.43,4.3,4.81,4.81,0,0,1,.25,4.76,5.42,5.42,0,0,1-2.21,2.19c.93-2,.15-4,0-6l-.2,0a1.59,1.59,0,0,0-.15.45,5.39,5.39,0,0,0,0,1.27c.41,1.76-.12,3.46-.29,5.18-.05.47-.47.89-.7,1.34a7.7,7.7,0,0,1-3.33,3.53,5.29,5.29,0,0,1-1.39.29l-.07-.21a1,1,0,0,1,.16-.19,5.43,5.43,0,0,0,2.28-4.26,28.08,28.08,0,0,1,.51-3.79A22.06,22.06,0,0,1,49,27.71c.39-.93.94-1.79,1.4-2.69.07-.15,0-.37,0-.55a1.69,1.69,0,0,0-.56.07c-.72.41-1.4.91-2.16,1.26s-1.65.62-2.54.94c.33-3,.23-3.49-.77-4.84.88-.58,1.78-1.13,2.62-1.75a7.71,7.71,0,0,0,2.85-3.34c.67-1.75,1.66-3.41,1.86-5.33A3.53,3.53,0,0,0,51.32,9c-.07-.1,0-.3,0-.44a7.64,7.64,0,0,0,.07-3.74,2.46,2.46,0,0,0-1-1.49,2,2,0,0,1-.55-.77c-.3-.56-.61-1-1.36-.85a.41.41,0,0,1-.32-.18C47.58.72,46.6.52,45.78.07a.66.66,0,0,0-.53,0c-.89.45-1.89.23-2.81.48a15.62,15.62,0,0,0-2.36.69,4.88,4.88,0,0,0-1.7,1.24,63,63,0,0,0-4.22,5.42,6.69,6.69,0,0,0-.47,6.53,2.09,2.09,0,0,1,.19.44c.3,1.15.58,2.3.88,3.5A3.58,3.58,0,0,0,31,20.89a12.88,12.88,0,0,1-.86,1.59c-.23.38-.15.63.29.65a5.25,5.25,0,0,0,.79-.06c.74-.08,1.49-.13,2.23-.25a13.14,13.14,0,0,0,1.64-.42c.36-.1.67-.47,1.11-.12.08.07.38-.07.54-.17a4.36,4.36,0,0,0,.73-.55c.39-.39.76-.43,1.2.07A84,84,0,0,0,35,34.17c-.41-.65-.78-1.24-1.16-1.81a1.21,1.21,0,0,0-1.32-.66.87.87,0,0,1-.57-.16c-.84-.53-1.67-1.07-2.48-1.63a.89.89,0,0,1-.37-.51,32.4,32.4,0,0,0-1.95-6.84,10.79,10.79,0,0,1-.72-4.24c0-.52,0-1-.06-1.73l1.39,1.47a4,4,0,0,0,2.35,1.41,2.41,2.41,0,0,0,.73-.14,3.09,3.09,0,0,0-.25-.62,14.82,14.82,0,0,0-1-1.44c-.45-.54-.95-1-1.36-1.47a14.39,14.39,0,0,0,1-2.44c.54-2.4-1.07-4.72-2.43-5.7a1.08,1.08,0,0,0-1.31,0,7.64,7.64,0,0,0-1,.75c-.45.4-.87.82-1.3,1.23a.72.72,0,0,0-.23.27c-.53,1.68-.89,3.36,0,5a6.68,6.68,0,0,0,.89,1.06A2.32,2.32,0,0,0,22,17.44c-.18.51-.36,1-.57,1.53-.13.29-.33.55-.48.84a2.29,2.29,0,0,0-.09.48c1.77-.42,3.3-1,4-2.83,1,3.94,3.08,7.49,3.58,11.64-1.49-.49-2.64-1.51-4.29-1.57.47,2.62.89,5,1.36,7.47A13,13,0,0,0,26,36.41c.14.46.16.94.27,1.41a4.39,4.39,0,0,0,.36,1.2,14.11,14.11,0,0,0,1.08,1.48,6.76,6.76,0,0,0-2.94,2.43c-.29.36-.87.5-1.16.86A4.5,4.5,0,0,1,21,45.36c-.23,0-.6.22-.67.14a1.73,1.73,0,0,1-.47-1A5.22,5.22,0,0,1,20.17,43a.54.54,0,0,1,.36-.3c1.95-.3,2.67-1.53,2.75-3.45,0-1.17.09-2.35.09-3.52,0-1-.63-1.66-1.41-1.52a1.76,1.76,0,0,0-1,.55A7.05,7.05,0,0,0,19,39.86a5.56,5.56,0,0,0,.54,2.82c.16.25-.12.79-.31,1.22-.17-.43-.37-.85-.5-1.29a10.66,10.66,0,0,0-2.3-4.39,4.58,4.58,0,0,1-.88-4.49,2.28,2.28,0,0,0,2.18-2.51c0-.93,0-1.86,0-2.79a1.08,1.08,0,0,0-1.54-1.13,2.25,2.25,0,0,0-1.63,2c-.21,1.38-.38,2.75.52,4a.41.41,0,0,1,.06.29,8.09,8.09,0,0,1-.49,1.73c-.32-1.08-.66-2.16-1-3.25-.57-2-1.12-4-1.7-6-.12-.42-.19-.72.29-1a1.68,1.68,0,0,0,.8-1.43c.17-2.55-.64-3.44-2.51-4.74-.46-.32-.87-.15-1.14.39A4.34,4.34,0,0,0,9.77,24a17.42,17.42,0,0,0,1.56,1.66,1.42,1.42,0,0,1,.32.42c.32,1,.63,2.05,1,3.17-.42-.25-.76-.43-1.07-.66a.52.52,0,0,1-.15-.41A2.12,2.12,0,0,0,10.22,26,11.44,11.44,0,0,0,7,25c-1.1-.15-1.35.29-1,1.35s1,2.45,2.41,2.77a9.13,9.13,0,0,0,2.28.05c.16,0,.33-.18.53-.29.16.1.36.24.57.36a2.59,2.59,0,0,1,1.24,1.83c.41,1.78.91,3.54,1.42,5.29a19.33,19.33,0,0,0,.82,2,1.45,1.45,0,0,1-1.23-.63,4.49,4.49,0,0,0-5.59-.94,2.57,2.57,0,0,0-.41.26c-1.3,1-1.2,2,.33,2.62a7.08,7.08,0,0,0,1.89.61,3.63,3.63,0,0,0,3.36-1.19,1,1,0,0,1,1.13-.25,3.35,3.35,0,0,1,2.37,1.92c.56,1.2,1.1,2.41,1.7,3.58a21.29,21.29,0,0,0,1.16,1.82c-.44.6-.93,1.34-1.49,2a4.53,4.53,0,0,0-1.13,2.55c-.9-.32-1.75-.68-2.64-.94a7.62,7.62,0,0,0-4.79,0A4,4,0,0,0,7.9,51.57a2.47,2.47,0,0,1-.93.79c-.69.37-1.46.61-2.15,1a2.61,2.61,0,0,0-1.4,2,1.43,1.43,0,0,1-.79,1.08A5.66,5.66,0,0,0,.21,58.65a1.43,1.43,0,0,0-.21.56c0,.33,0,.8.19.94a1.39,1.39,0,0,0,1,0c.62-.2,1.2-.51,1.8-.76a8.65,8.65,0,0,1,8.64.82,12.35,12.35,0,0,0,1.28.72c.57.31.73.62.36,1.14a1.77,1.77,0,0,0,.1,2.15,1.6,1.6,0,0,1,.24,1A3,3,0,0,0,13.83,68c-1.11.13-2.17.12-2.84,1.12-.15-.09-.27-.15-.38-.23A3.54,3.54,0,0,0,8,68.13a17.56,17.56,0,0,1-5-.35,1.59,1.59,0,0,0-.43-.06c-.08,0-.22.07-.23.13a.4.4,0,0,0,.08.32c.62.64,1.28,1.23,1.85,1.9a2.71,2.71,0,0,0,2,1c.62,0,1.22.27,1.84.33s1.26,0,1.95,0A4,4,0,0,0,11.66,74a7.69,7.69,0,0,1,1.11,1.56c-.58.74-1.14,1.44-1.68,2.15a1.48,1.48,0,0,0,0,1.88,2,2,0,0,1,.32,1.87,3.76,3.76,0,0,0,.55,3.14,1.69,1.69,0,0,0,.59.51c.45.21.73,0,.69-.48a7.36,7.36,0,0,1,1-3.61c.62-1.4,1.49-2.72,1.52-4.33,0-.14.26-.27.45-.46.4.92.77,1.74,1.74,2a23.93,23.93,0,0,0,2.78.54A4.47,4.47,0,0,0,22,78.5a10.18,10.18,0,0,1-1.07,4.07,25.61,25.61,0,0,0-1.16,2.35,3.6,3.6,0,0,0,.71,4.19l-2.58.22c-.27-1.22-2-1.06-2.51-.49a2.49,2.49,0,0,0,.08,2.31,1.8,1.8,0,0,0,2.09.24c.47-.34.51-.58.23-1.53a22.29,22.29,0,0,1,3-.27,5.59,5.59,0,0,1,1.73.74,4.9,4.9,0,0,1-.44.26c-2,.82-3.9,1.78-5.92,2.42a25.15,25.15,0,0,1-4.45.68.64.64,0,0,1-.46-.18,1.07,1.07,0,0,0-1.4-.09,1.17,1.17,0,0,0-.62,1.33.86.86,0,0,0,1,.67,1.51,1.51,0,0,0,1.08-.6,1,1,0,0,1,1-.65,19.86,19.86,0,0,0,8.82-2.37l.35-.14c-1.29,2-6.39,4.92-9.73,5.5-.44-.63-.77-.76-1.36-.49a1.07,1.07,0,0,0-.62,1.2.89.89,0,0,0,.83.84c.53.06,1-.35,1.21-1L17,96.31s-.16.15-.32.27c-1.06.75-2.13,1.49-3.19,2.26a1.52,1.52,0,0,0-.52.7,26.87,26.87,0,0,0,4.86-3.13c1.46-1.25,2.82-2.62,4.24-3.94-.32.77-.59,1.59-1,2.35-.76,1.47-1.59,2.91-2.41,4.35a.8.8,0,0,1-.54.29,1.4,1.4,0,0,0-1.1.94,1,1,0,0,0,.2,1.17,1,1,0,0,0,1.37.19,1.16,1.16,0,0,0,.46-1.54.84.84,0,0,1,.12-1.07,30.26,30.26,0,0,0,3.18-5.87c.35-.85.8-1.66,1.21-2.49h.26a16.88,16.88,0,0,1,.78,2c.26,1,.38,2,.62,2.92a2.87,2.87,0,0,0,2.24,2.48,8.24,8.24,0,0,0,2-.11c.78-.06,1.56-.16,2.34-.19a2,2,0,0,1,.7.24c-.51.52-1,.95-1.4,1.43s-1,.32-1.48.4a1,1,0,0,1-1.15-.72c-.23-.58-.78-.74-1.38-.83a7.24,7.24,0,0,0-3.37.07c-.87.26-1.3.85-1.08,1.55a1.21,1.21,0,0,0,.55.74,15.63,15.63,0,0,0,3,.93,2.51,2.51,0,0,0,2.49-1,.63.63,0,0,1,.39-.21c.34,0,.68,0,1.18,0-1,1-1.79,2-2.72,2.9A2,2,0,0,1,25,102.9c-.76-1.51-3.41-2-4.81-1.1a1.26,1.26,0,0,0-.33,1.81,4.3,4.3,0,0,0,5.14,1c.05,0,.12,0,.15-.1.38-.59.91-.55,1.56-.29-.55.45-1.07.88-1.6,1.29a7.86,7.86,0,0,1-1.73,1.24,11.86,11.86,0,0,1-2.47.47c-.08,0-.24-.2-.29-.34-.84-2-4.07-2.37-5.69-1-1,.88-1.06,2.31.48,2.76,1.33.39,2.62.93,4,.41a1.79,1.79,0,0,0,.93-.62c.35-.72.91-.65,1.56-.57-.63.67-1.49,1.09-1.75,2l2.33-2a2.08,2.08,0,0,1-.73,1.76,4.89,4.89,0,0,0-1.84,4.23A2.23,2.23,0,0,0,21.63,116c.94.16,1.76-.57,1.9-1.77.12-1,.18-2,.24-3a1.85,1.85,0,0,0-.72-1.71c-.1-.08-.23-.24-.21-.34.16-.69.13-1.47.84-1.93l1.95-1.31c.05.65.11,1.23-.49,1.71a2.08,2.08,0,0,0-.62,2,4.44,4.44,0,0,0,2.3,3.65,1.74,1.74,0,0,0,1.21.13,1.25,1.25,0,0,1,1,.13c.59.31,1.21.57,1.86.87-.19.59.17.86.71,1s.95.18,1.42.32c.26.08.48.28.74.38a1.5,1.5,0,0,0,.74.16,8.23,8.23,0,0,0,3.68-1.36,5.35,5.35,0,0,1,1.14-.51L44,112.56a6.13,6.13,0,0,1,.7-.2l.08.17a2.85,2.85,0,0,1-.32.27c-.26.19-.55.35-.79.56-.54.45-1,1-1.8,1a.89.89,0,0,0-.49.23c-.91.65-1.82,1.3-2.7,2a3.87,3.87,0,0,0-.75.86c-.09.14-.1.48,0,.54.4.3.18.6,0,.9s-.31.62-.45.93-.3.88.35,1c-.13.91-.27,1.77-.37,2.63a1.94,1.94,0,0,0,.09.62,2.23,2.23,0,0,0,.65-.19A6.46,6.46,0,0,0,41,120.22c.12-.4.26-.65.77-.49.15,0,.49-.23.6-.44a7.31,7.31,0,0,0,.66-4.14,1,1,0,0,1,.47-1.07c.47-.32.93-.65,1.38-1l1.92,2a4.39,4.39,0,0,0-1,4.24,7.34,7.34,0,0,1,0,2c0,.73-.12,1.47-.18,2.27-.09,0-.34.08-.6.12a4.22,4.22,0,0,0-3.37,3.37c-.22.75.15,1.19.94,1.17.59,0,1.17-.07,1.76-.12a3.5,3.5,0,0,0,2.39-1.43c.23-.26.43-.53.67-.83L48.81,127c0,1.57,0,3,.13,4.47a.91.91,0,0,1-.37.93c-.26.17-.47.4-.74.55a.83.83,0,0,1-.59.1,3.71,3.71,0,0,0-3.28.33,22.81,22.81,0,0,0-2.52,2.08c-.42.37-.31.79.06,1.17a2.85,2.85,0,0,0,3.81.63,11,11,0,0,0,2.28-1.69,2.1,2.1,0,0,0,.61-2.2l1-.72c0,1.31.15,2.46.1,3.59,0,.79-.55,1.11-1.35,1.31a3.52,3.52,0,0,0-1.58.71,22.42,22.42,0,0,0-2.25,2.61,1.15,1.15,0,0,0,.17,1.6,2.2,2.2,0,0,0,3.35.22,11.67,11.67,0,0,0,1.89-2.35,2.26,2.26,0,0,0-.28-2.73l.57-.79.12.09a3.36,3.36,0,0,1,1.35,2.75c0,2.21,2.1,3.52,4.2,3.39a1,1,0,0,0,1-1.16c-.21-2.74-2-4.69-4.85-4.31a.48.48,0,0,1-.36-.06c-.45-.44-.88-.89-1.3-1.36a.63.63,0,0,1-.09-.39c0-1.07,0-2.14.09-3.28.15.33.34.65.46,1a24.29,24.29,0,0,0,.88,2.57,1.32,1.32,0,0,0,1.87.72,1.68,1.68,0,0,0,.89-2.18,3.56,3.56,0,0,0-2.43-2.13,4.05,4.05,0,0,0-1.1,0c-.82-.34-.93-1.06-1-1.84s-.09-1.41-.09-2.13c.64,1.88,2.28,2.54,3.87,3.23a7.32,7.32,0,0,1,2.44,1.78,5.78,5.78,0,0,0,4,2.15,2.62,2.62,0,0,0,1.83-.53.74.74,0,0,1,.48-.15c.79.17,1.57.38,2.29.56a15.62,15.62,0,0,0,.25,1.82,1,1,0,0,0,.65.53,1.5,1.5,0,0,0,1.41-.69,1,1,0,0,0,.12-1.19c-.1-.24-.24-.47-.39-.76l1.25-.34c-.23,1.39-.43,2.73-.7,4-.18.9-.48,1.77-.73,2.65-.08.31-.14.63-.25.93a.76.76,0,0,1-.35.41,1.27,1.27,0,0,0-.93,1.1c-.07.51.29.75.68,1a3.14,3.14,0,0,1,.57.45,1,1,0,0,0,1.28.12,1.11,1.11,0,0,0,.48-1.25c-.11-1-.65-1.3-1.54-1.27.73-2.36,1.45-4.66,2.15-7a11.11,11.11,0,0,1,.69,6.43c-.51,2.19-1,4.4-1.47,6.6a4.25,4.25,0,0,0,0,.8h.15c.78-2.89,1.55-5.77,2.33-8.71,1.43,3.12,1.2,6.37,1,9.61h.31c0-.53.11-1.06.16-1.59s.08-1.17.11-1.75a9.53,9.53,0,0,1,.22-1.72c.44,1.76.89,3.52,1.33,5.27l.23-.06c-.31-3.44-1.65-6.63-2.52-9.94l5.15,7.3c-.87.84-1,1.36-.69,2.08a1.93,1.93,0,0,0,1.92,1,1.22,1.22,0,0,0,1.08-1.71q-.11-.31-.24-.63a1.37,1.37,0,0,0-1.72-.9c-1.55-2.33-3.11-4.62-4.59-7a23.12,23.12,0,0,1-3-6.16,1.85,1.85,0,0,0-.06-.25l3.11-.62,2.83,4.6c-1.3.47-1.5,1.25-.66,2.21a2.73,2.73,0,0,1,.27.47,1.27,1.27,0,0,0,1.68.68,1.33,1.33,0,0,0,1-1.59c0-.08,0-.16,0-.24-.23-1.38-.27-1.42-1.73-1.4h0c-1-1.77-2-3.48-3-5.22l1.31-1.67c.37.69.75,1.41,1.16,2.12.25.43.54.82,1.16.66.11,0,.3.14.42.26.58.6,1.12,1.23,1.74,1.79a1,1,0,0,0,.84.28,1.3,1.3,0,0,1,1.12.23c1.47.77,3,1.51,4.45,2.25a.69.69,0,0,0,.51,0c.07,0,.11-.3.07-.43-.28-1-.59-1.93-.89-2.89l-.34-1c.65-.05.65-.05.64-1.36.35.27.66.53,1,.75s.71.26.89-.27a8.32,8.32,0,0,0,.75-3.18,2.66,2.66,0,0,0-1.35-2.43c-.69-.37-.45-1-.7-1.62,1.35.86,2.63,1.71,3.94,2.52.43.26.89.43,1,1s.25,1.27-.49,1.88a2.93,2.93,0,0,0-.13,4.25c.46.56,1,1.09,1.48,1.6s.84.48,1.28,0c1.28-1.48,1.09-4.49-.48-5.62a2.64,2.64,0,0,1-1.07-2.22c.94.47,1.86.94,2.79,1.39,1.14.54,2.32,1,3.41,1.62A3.11,3.11,0,0,1,98,135.92c0,.11-.18.28-.29.41-.56.62-1.21,1.2-1.19,2.12A4.19,4.19,0,0,0,96.8,140a21.81,21.81,0,0,0,1.41,2.49.62.62,0,0,0,1,.16,4.68,4.68,0,0,0,1.4-4.86,3.88,3.88,0,0,0-1.68-1.53,1,1,0,0,1-.37-.41c-.2-.55-.36-1.11-.55-1.73.3.07.6.12.9.21.77.24,1.55.48,2.32.74a.59.59,0,0,1,.3.26c.47.8.94,1.61,1.37,2.44a.55.55,0,0,1,0,.47,2.46,2.46,0,0,0,.05,2.93,21.23,21.23,0,0,0,2.49,2.62c.33.32.74.12,1-.42a3.37,3.37,0,0,0,.16-2.55,3.42,3.42,0,0,0-2.41-2.53,1.07,1.07,0,0,1-.84-.77c-.23-.71-.5-1.41-.73-2.06l1.54.56.08-.21-2.06-.75,1.68-.85a2.59,2.59,0,0,0,2.9.91,5.94,5.94,0,0,0,3.37-1.84c.79-.88.62-1.6-.44-2.11a5.09,5.09,0,0,0-4.79.32,3,3,0,0,0-1.33,1.82,1.6,1.6,0,0,1-.56.71,3,3,0,0,1-3.32.12c-.85-.38-1.75-.65-2.66-1l1.78-1.5a2,2,0,0,0,2.41,0,9.06,9.06,0,0,0,3-2.71c.23-.29.17-.56-.19-.74a4.19,4.19,0,0,0-5.24,1.33,3.46,3.46,0,0,0-.55,1.41c-.09.79-.7,1-1.19,1.41a1.38,1.38,0,0,1-1.72,0c-1.56-.86-3.18-1.61-4.89-2.47.6-.33,1.09-.63,1.6-.88a.43.43,0,0,1,.39.08,2.68,2.68,0,0,0,3.62,0A10.79,10.79,0,0,0,98,127.32c.51-.61.31-1.14-.41-1.51a3.92,3.92,0,0,0-5.45,2c-.4,1.06-1.38,1.21-2.19,1.66-.1.05-.33,0-.45-.12l-5.82-4.1a.39.39,0,0,1-.06-.11c1-.22,1-.19,1.73.43a2.68,2.68,0,0,0,1.29.56,5.27,5.27,0,0,0,4.46-1.81.54.54,0,0,0-.1-.92,4.26,4.26,0,0,0-6,.8.6.6,0,0,1-.34.23c-.89.1-1.79.29-2.54-.52-.59-.63-1.3-1.17-2-1.74s-.77-.67-.33-1.49A7.37,7.37,0,0,0,82,121.83c2.29.23,4.67.63,6.61-1.21a.6.6,0,0,1,.51-.06,3.88,3.88,0,0,0,2.8.23,5.26,5.26,0,0,1,2.64.19c2.47.54,4-.09,5.26-2.27a2.14,2.14,0,0,1,.24.34c.47,1,.94,2.08,1.37,3.13.06.14-.11.37-.13.56a1.51,1.51,0,0,0,0,.79.78.78,0,0,0,.68.21,1.05,1.05,0,0,0,.55-.55c.06-.13-.08-.4-.2-.57s-.51-.5-.63-.8c-.36-.83-.64-1.68-1-2.53l.23-.16c.86.84,1.75,1.66,2.58,2.53a13,13,0,0,1,2.82,4.52,1.7,1.7,0,0,1,0,.68.73.73,0,0,0,.58.87.9.9,0,0,0,.77-.36.6.6,0,0,0-.48-.87c-.43-.1-.54-.36-.66-.7-.28-.76-.57-1.51-.9-2.4a17.89,17.89,0,0,1,3.6,3.09,20.08,20.08,0,0,1,1.32,1.58,2.5,2.5,0,0,1,.37,1c.09.47.34.75.81.74a.66.66,0,0,0,.68-.77.73.73,0,0,0-.82-.72.74.74,0,0,1-.5-.17,21.87,21.87,0,0,0-4.67-4.74,1.41,1.41,0,0,1-.18-.2l2.54.56c.15,0,.25.23.4.3a1.51,1.51,0,0,0,.75.26c.12,0,.32-.43.28-.62-.09-.38-.41-.46-.78-.32a.61.61,0,0,1-.35,0c-1.27-.4-2.56-.8-3.82-1.23a6.69,6.69,0,0,1-2.57-2.11l3.37.82a1.56,1.56,0,0,1,.4.25c.36.22.74.33,1,0a.59.59,0,0,0-.16-.94c-.39-.28-.75-.31-1,.13l-.12.18c-2.31-.24-4.1-1.62-5.9-2.64-.13-1.2-.26-2.35-.36-3.25.4-.27.84-.6,1.31-.87a.68.68,0,0,1,.53.08c1.67.83,3.34,1.66,5,2.53.94.49,1.84,1,2.74,1.57.12.07.18.26.24.41a3.54,3.54,0,0,0,1.74,1.95c.27.14.61.25.47.71,0,.06.22.26.37.32a4.65,4.65,0,0,0,.7.13c-.43.84-.86,1.59-1.22,2.38a4.92,4.92,0,0,0-.33,1.21c-.07.44.3.42.57.45a3.1,3.1,0,0,0,2.64-1.13c.18-.19.35-.39.5-.56,2.64,1.7,5.62,1.79,8.75,2.14l-.8-1.93a9,9,0,0,0,1-.1c.5-.09.6-.33.32-.72a13.36,13.36,0,0,0-5.26-4.13,7.29,7.29,0,0,0-1.54-.34,4.55,4.55,0,0,0-.31-3.8,24.57,24.57,0,0,1-1.15-3.06,7.63,7.63,0,0,0-4.88-4.92c-1-.36-1.94-.82-3-1.29.65,0,1.18,0,1.71,0a38.76,38.76,0,0,1,3.89,0,4,4,0,0,1,1.77.91,28.64,28.64,0,0,1,2.75,2.4,5,5,0,0,1,.83,1.39,2.72,2.72,0,0,1,.23.89A8,8,0,0,0,122,116a10.06,10.06,0,0,1,1.22,1.81,2.38,2.38,0,0,0,.35.36c.08-.14.23-.29.23-.43a22.78,22.78,0,0,1,.51-5c.43-2.48-1.9-6.09-4.9-6.52-1.12-.15-2.25-.31-3.37-.48a2.25,2.25,0,0,1-.44-.15,2.24,2.24,0,0,1,.29-.12c1.52-.3,3.06-.51,4.54-.93a4.53,4.53,0,0,1,4,.84,9.74,9.74,0,0,0,3.61,1.84c1,.19,2,.22,2.95.35a32.51,32.51,0,0,1,3.95.64,7,7,0,0,1,3.77,2.74,2.3,2.3,0,0,0,.6.39,3.13,3.13,0,0,0,.1-.73,3.19,3.19,0,0,0-1.31-2.19c-1.68-1.36-3.41-2.67-5.12-4a3.88,3.88,0,0,0-2.86-.74c-2,.15-4,.2-6.06.3l0-.26.69-.17c.26-.06.51-.13.77-.17a31.42,31.42,0,0,1,5.29-.83,6.48,6.48,0,0,1,5.3,2.42,8.45,8.45,0,0,0,4.53,3.32,6.4,6.4,0,0,1,2.66,2.93,2.59,2.59,0,0,0,.54.5c.09-.26.32-.56.26-.78-.44-1.65-.63-3.41-1.93-4.73a22.05,22.05,0,0,1-1.43-1.74,5.09,5.09,0,0,0-3.64-1.85,33.42,33.42,0,0,1-3.7-.57c1.47-.28,3-.52,4.42-.84a2.86,2.86,0,0,1,2.44.26,3.49,3.49,0,0,0,3.75-.1,7.58,7.58,0,0,1,2.43-.72,5.47,5.47,0,0,0,3.87-2c.65-.83,1.35-1.61,2-2.44a1.9,1.9,0,0,0,.2-.65A1.72,1.72,0,0,0,151.81,95.56Zm-13.57,2.3c1.17-1.82,2.38-3.72,3.59-5.62A7.48,7.48,0,0,1,138.24,97.86Zm-1.07-.73a5,5,0,0,1,1.38-2.79c1-.85,2-1.64,3-2.46-1.63,2.25-2.72,4.87-4.76,7C137,98.2,137,97.66,137.17,97.13Zm-2.35-7.57.1.09c-.74,1.75-1.47,3.51-2.23,5.25a18.85,18.85,0,0,1-1,1.83c-1,1.72-2.82,2.2-4.45,3a3.89,3.89,0,0,1,.43-.48,26,26,0,0,0,2.43-2.62c1.2-1.7,2.23-3.5,3.36-5.25C133.9,90.74,134.37,90.16,134.82,89.56Zm-1.76,1.78c-1.79,2.81-3.31,5.85-5.93,7.89C127.86,95.74,130.72,93.74,133.06,91.34Zm-14.51,9.06A24.81,24.81,0,0,1,120.64,98a9.62,9.62,0,0,0,3.13-4.48C123.18,97.81,121.69,99.56,118.55,100.4Zm1.89-4.89a9.37,9.37,0,0,0,3.06-2.61,9.64,9.64,0,0,1-2.44,4.24c-1,1-1.77,2.08-2.64,3.13-.19.22-.35.45-.58.77A6.13,6.13,0,0,1,120.44,95.51ZM84.87,79.94c-.88,0-1.76.16-2.72.25a6.47,6.47,0,0,1,4.54-1.32,2.33,2.33,0,0,1,1.79,3.07A3.49,3.49,0,0,0,84.87,79.94ZM52.23,55.76c.37.57.73.37,1.14.15,1.14-.61,2.29-1.19,3.52-1.81,0,.92.07,1,.84.81a9,9,0,0,1,4.88,0,18.85,18.85,0,0,1-1.93,1.53c-1.16.71-2.38,1.33-3.58,2-.46.25-1,.45-1,1.1,0,.1-.16.24-.28.28a12.89,12.89,0,0,1-2.75.92,28.78,28.78,0,0,1-3.83,0l-.09-.3a9.09,9.09,0,0,1,2.16-1.08,9.32,9.32,0,0,1,2.46.12l0-.18-2-.35c1.14-.75,2.39-.15,3.53-.4v-.15l-2-.15c1.1-.85,2.4-.33,3.56-.73l-1.59-.09c.89-.63,1.9-.32,2.8-.62l-1.2-.11.74-.31c.2-.09.39-.2.58-.3L58.17,56l-1.48.51.38-1.06L57,55.3c-.41.83-.73,1.74-2,1.74.37-.53.71-1,1-1.5l-.16-.13A5.47,5.47,0,0,0,55,56.55c-.4.93-1.23,1.09-2,1.41l-.12-.12L54.23,56a.86.86,0,0,0-.57.3c-.37.48-.69,1-1.08,1.46a7.72,7.72,0,0,1-.89.82l-.17-.17c.42-.67.83-1.34,1.25-2l-.14-.11c-.27.35-.56.68-.81,1s-.5,1.12-.93,1.46a14.55,14.55,0,0,1-2.22,1.22A13,13,0,0,1,52.23,55.76ZM52.15,49c.08-.09.21-.23.28-.21.58.16.84-.31,1.21-.56l1-.64c.1.66.27.75.87.55,1-.32,1.92-.62,3-1a2.1,2.1,0,0,1-.17.45c-.78.87-1.56,1.75-2.36,2.61-.27.28-.62.47-.39,1,0,.08-.09.29-.19.4a6.43,6.43,0,0,1-3,1.88,9.7,9.7,0,0,1-1.86.18A3.06,3.06,0,0,1,53.49,52l-.05-.19-1.23,0c.61-.74,1.49-.3,2.09-.79H53.14l0-.2,2.19-.58,0-.12-1.06,0,.62-.61-.08-.09L54,49.8c0-.37.1-.72.15-1.07-.63,1.54-.63,1.54-1.21,1.8.1-.26.18-.49.26-.71L53,49.74l-.78,1.56-.14-.07c.1-.35.21-.69.31-1l-.2-.1A4.59,4.59,0,0,1,50.33,53C50.21,51.89,51.29,49.92,52.15,49Zm-1-8.25c2.14-.35,5.57,1.15,6.34,2.77-1.21.06-2.42.18-3.63.18A3.44,3.44,0,0,1,50.56,41l3.8,2,.13-.25Zm8.72-5.89-.09-.24L55.55,36c1.79-2.21,4.34-2.07,6.75-2.55-2.18,2.82-5.54,4.36-7.7,3.51ZM62,28l-3.42,1.06c1.23-1.49,3.46-2.35,6.3-2.47a11.8,11.8,0,0,1-3,2.65A7.31,7.31,0,0,1,60,30a1.47,1.47,0,0,1-1.51-.41c1.17-.5,2.44-.74,3.55-1.35Zm-3.8-6c1.21-1.24,2.54-2.38,3.81-3.56l.14.07c-.12.74-.23,1.48-.35,2.22a9.06,9.06,0,0,1-2.84,5.45,8.4,8.4,0,0,1-1.28.81l-.17-.16A13.77,13.77,0,0,1,58.35,25c.94-1.48,2-2.92,2.93-4.38a1.94,1.94,0,0,0,.17-.42l-.19-.1-4.13,5.59A4,4,0,0,1,58.17,22.08Zm-5.08,4.11a3.26,3.26,0,0,1-.27-3.07c.53-1.28,1.21-2.51,1.83-3.77A11.09,11.09,0,0,1,55,25.16,2.16,2.16,0,0,1,53.84,27c-.51-2,.13-3.79.56-5.63A12.32,12.32,0,0,0,53.09,26.19Zm-23-7.36c-1.6-.27-2.41-1.52-3.57-2.61,1,0,1.31.9,2.11,1l-1.06-1C29,16.63,29.28,17.93,30.05,18.83Zm-8.35.65c.23-.48.5-.95.69-1.45a1.86,1.86,0,0,1,2.07-1.48l-1.25,1.18a1.07,1.07,0,0,0,.14.16l1.31-1C23.62,18.73,23,19.26,21.7,19.48Zm4.14-3.32c0,.95,0,1.78,0,2.77C25.09,17.75,25.06,16.76,25.84,16.16Zm.12-.24c-.36-1.37-.68-2.58-1-3.79l-.23.06c.27,1.15.53,2.3.83,3.6A7.28,7.28,0,0,1,24,12.6a5.12,5.12,0,0,0,.83,3c-.65,0-1-.22-1.42-.92-.75-1.4-.44-2.84-.14-4.27,0-.15.23-.37.36-.38.7-.07,1-.59,1.29-1.08a5.53,5.53,0,0,1,.68-.69.7.7,0,0,1,1,0,5.36,5.36,0,0,1,1.74,6c-.1-2.2-.1-2.2-.51-2.64a5.4,5.4,0,0,1-.19,3.8l-.49-4-.25,0c.09.69.21,1.38.24,2.07a12.17,12.17,0,0,1-.1,1.91c0,.15-.23.27-.43.48a10.48,10.48,0,0,0-.85-4.63,17.77,17.77,0,0,0,.37,2.3A3.2,3.2,0,0,1,26,15.92ZM10.89,21.56l-.2.05A6.81,6.81,0,0,0,11.33,25c-2-1.61-2.5-4.58-1.17-5.77,2.33,1.51,3.12,4.12,1.56,5.71C11.42,23.77,11.16,22.66,10.89,21.56ZM6.51,25.68c1.57-.54,4.27,1,4.37,2.48L8.42,27l-.13.24L11,28.73C8.56,29.18,7.13,28.48,6.51,25.68ZM10.14,38c0,.09,0,.18,0,.26l3.51.37a3.6,3.6,0,0,1-4.79.56,6.21,6.21,0,0,1-1-.83c.39-.38.77-.78,1.2-1.13a1.3,1.3,0,0,1,.65-.13c.4,0,.81,0,1.21-.11a3.07,3.07,0,0,1,2.83,1.18Zm5.17-9.23c.15-.39.72-.67,1.16-.9s.72,0,.72.49c0,1.11,0,2.22-.05,3.34a1.48,1.48,0,0,1-1.43,1.41c.09-1,.61-1.92.41-2.94l-.16,0c-.2.89-.39,1.79-.59,2.68A4.3,4.3,0,0,1,15.31,28.78Zm4.27,9.88a6.39,6.39,0,0,1,1.52-3.4c.32-.36.71-.69,1.21-.51s.61.71.6,1.22c0,1.17-.05,2.34-.13,3.5-.12,1.63-.87,2.49-2.31,2.66a41.72,41.72,0,0,0,1.3-4.38l-.21-.06c-.53,1.48-1.07,3-1.6,4.43a1,1,0,0,1-.32-.62A15,15,0,0,1,19.58,38.66ZM17.27,90.81a2.78,2.78,0,0,1-.88.22,1.52,1.52,0,0,1-.54-1.84A1,1,0,0,1,17,89c.45.14.16.44.14.7a2.67,2.67,0,0,0,.07.47C17.24,90.36,17.36,90.76,17.27,90.81ZM11,94.32a.65.65,0,0,1-.92.42.65.65,0,0,1-.25-.61c.11-.36.41-.59,1-.45C10.86,93.85,11,94.13,11,94.32Zm.26,3.38c-.07.17-.41.24-.62.35-.1-.24-.31-.51-.26-.72s.37-.31.73-.57C11.17,97.21,11.32,97.5,11.24,97.7Zm7.33,3.2a.91.91,0,0,1-.78.39c-.24-.08-.37-.48-.66-.91.48-.2.8-.46,1-.4A.63.63,0,0,1,18.57,100.9Zm9.69-.59v.22a2.47,2.47,0,0,1-2.21.64,19.71,19.71,0,0,1-2.61-.81.68.68,0,0,1-.14-1.22,1.75,1.75,0,0,1,.65-.3,6.07,6.07,0,0,1,3.53.15c.3.11.53.43.8.66-1.2.14-2.27-.38-3.5.06ZM25.05,104a2.66,2.66,0,0,1-2.55.45,10.66,10.66,0,0,1-1.79-.89c-.27-.17-.62-.55-.59-.79a1.11,1.11,0,0,1,.69-.77,5.19,5.19,0,0,1,2-.11,2.25,2.25,0,0,1,1.86,1.35l-1.51-.36c-1.09-.24-1.11-.23-1.31,0l3.25.88Zm-7,4.71c-.9-.15-1.77-.43-2.66-.63-.66-.15-.92-.53-.63-1.14a2.33,2.33,0,0,1,.8-.93,3.56,3.56,0,0,1,2.76-.42,2.49,2.49,0,0,1,2,1.73c-.65-.11-1.25-.24-1.85-.31s-1.16-.08-1.74-.12V107l3.68.7A2,2,0,0,1,18.05,108.67Zm4.9,1A5.11,5.11,0,0,1,23.3,111a20.44,20.44,0,0,1-.16,3,2.62,2.62,0,0,1-.61,1.13.65.65,0,0,1-.6.13,2.09,2.09,0,0,1-1.54-1.5,4.11,4.11,0,0,1,2-4.17c-.2.82-.43,1.57-.58,2.34s-.2,1.5-.3,2.25h.12c.37-1.5.73-3,1.1-4.5Zm19.11,5c-.48.91-.74,2.15-2.25,1.59Zm-.26,4.64c-.39-.09-.76-.23-1,.25s-.46,1-.7,1.56a5.68,5.68,0,0,1-2.31,2.51c.17-.87.29-1.63.47-2.37.11-.47.12-.84-.46-1a10.86,10.86,0,0,1,.61-1.37c.25-.43.42-.79,0-1.15.69-1.18,1-1.29,2.54-1-.16,1-1.09.39-1.67.88l1.27,0L40,119.09l.15.07.77-1.44c.17.36.32.67.46,1l.14-.07c-.12-.54-.23-1.09-.35-1.63l.14,0c.19.35.37.7.55,1,0-.6-.29-1.15-.22-1.64s.52-.87.9-1.45C42.47,116.54,42.56,118,41.8,119.32Zm5.72,15.23a7.06,7.06,0,0,1-2.85,2.22,2.33,2.33,0,0,1-2.67-.31c-.44-.32-.45-.64-.08-1a12.77,12.77,0,0,1,1.41-1.24,4.54,4.54,0,0,1,3.88-.79l-.93.76-.67-.72-.14.1.61,1.07-1.33-.48-.09.15.81.49-1.12-.13,0,.17,1.13.32-1.22.61c.07,0,.14.12.19.11,1.41-.24,2.13-1.53,3.44-2.25A4.06,4.06,0,0,1,47.52,134.55Zm.82,6.43a5,5,0,0,1-1.19,1.27,1.64,1.64,0,0,1-2.44-.17.75.75,0,0,1-.13-1.09,23.6,23.6,0,0,1,2.21-2.47,5.68,5.68,0,0,1,1.6-.71l.09.17c-.22.45-.45.9-.67,1.34l-1.23-.13,0,.16,1,.33v.16l-1.25.43,0,.16,1.19-.13c-.1.43-.18.8-.26,1.17l.14,0,.57-1.57.24,0C48.29,140.27,48.49,140.73,48.34,141Zm.36-.56a1.66,1.66,0,0,1,.35-2.37A1.93,1.93,0,0,1,48.7,140.42Zm3-1.79c1,.43.74,1.49,1,2.32l.16,0c0-.32,0-.64,0-1.11l.49,1.56.2-.06c-.1-.45-.19-.91-.29-1.42l1.35.71.08-.17-1-.7.55-.11A3.43,3.43,0,0,1,52,138.14a3.29,3.29,0,0,1,3.72,3.66c0,.17-.28.43-.43.43a5.79,5.79,0,0,1-1.5-.15A3,3,0,0,1,51.7,138.63Zm1.94-3.53a1.18,1.18,0,0,1-.81,1.11.78.78,0,0,1-1-.3,3.68,3.68,0,0,1-.83-2.35l1.62,2.06.19-.09c-.27-1.09-1.17-1.79-1.84-2.66A3,3,0,0,1,53.64,135.1Zm13.12,8.47c.55,0,.26.57.4.88s0,.57-.11.63a1,1,0,0,1-.75,0,1.81,1.81,0,0,1-.7-.56c-.15-.17-.31-.5-.24-.64a1.12,1.12,0,0,1,.65-.4A2.22,2.22,0,0,1,66.76,143.57Zm10.34,5.17a2.33,2.33,0,0,1,.77,1.68c-.12.37-.82.57-1.34.39a1.25,1.25,0,0,1-.8-1.46A1.14,1.14,0,0,1,77.1,148.74ZM76,139.48c.46.07.26.51.27.81,0,.1,0,.19.07.29a.9.9,0,0,1-1.06,1.15,2.47,2.47,0,0,1-1.08-2s.12-.23.22-.24A7.59,7.59,0,0,1,76,139.48Zm22.61.15.27,0c-.06-.94-.13-1.88-.2-2.89a2.43,2.43,0,0,1,1.61,2.13,4.69,4.69,0,0,1-1.55,3.55c-1.9-2.41-2.4-3.83-.56-5.79Zm5.35.16c.45.82.45.82.81.88-.29-.65-.59-1.29-.93-2a3,3,0,0,1,2.28,2.35,2.66,2.66,0,0,1-.41,2.49,9,9,0,0,1-.9-.78,14.61,14.61,0,0,1-1.64-2.07,1.77,1.77,0,0,1,.11-2.06C103.54,139,103.76,139.4,104,139.79Zm.94-7.6a4.19,4.19,0,0,1,3.2-.86,5.84,5.84,0,0,1,1.64.58c.34.15.37.47.13.77a5.21,5.21,0,0,1-4,2.06,1.59,1.59,0,0,1-1.64-.73,16.92,16.92,0,0,1,4.6-1.67,9.75,9.75,0,0,0-4.71,1.13l-.14-.17A6.47,6.47,0,0,1,104.91,132.19Zm-1.19-3.44a7,7,0,0,1-3.19,2.7,1.16,1.16,0,0,1-1.49-.29l3.4-2.13s-.19-.12-.26-.08c-1.19.59-2.36,1.2-3.45,1.76C99.21,128.85,101.27,127.85,103.72,128.75Zm-11.1-1c1.11-2,2.83-2.17,4.7-1.46.49.18.4.55.15.88a6.24,6.24,0,0,1-2.44,2,2.1,2.1,0,0,1-2.38-.41c1.15-1.13,2.71-1.13,4.07-1.66a9.5,9.5,0,0,0-4.2,1A2,2,0,0,1,92.62,127.73Zm-1.77,9,.25,0-.48-3.92a3.6,3.6,0,0,1,1.11,5.23c-.22.3-.42.42-.71.08a18.37,18.37,0,0,1-1.28-1.37c-1-1.31-1.2-3,.35-4.05C90.34,134.06,90.59,135.42,90.85,136.78ZM89,124.15l-3.53,0c.86-1.38,3-1.58,5.1-.31-1.23,1.81-4.09,2.36-5.42.86l4-.45C89.12,124.22,89.08,124.15,89,124.15Zm34.32-13.73c.72,1.69,0,3.32-.19,5a2.51,2.51,0,0,1-.32-.66c-.3-1.13-.62-2.26-.89-3.4a5.72,5.72,0,0,0-2.37-3.75c-.52-.34-1.07-.64-1.59-.94A5.62,5.62,0,0,1,123.35,110.42Zm-4.85-3a5.81,5.81,0,0,1,3.08,3.86c.4,1.68.92,3.35,1.35,4.86-.34-.37-.78-.9-1.25-1.4a4.88,4.88,0,0,1-1.28-2.45c-.09-.43-.23-.86-.3-1.3a4.6,4.6,0,0,0-2-3.12c-.58-.41-1.1-.9-1.65-1.35A11.36,11.36,0,0,1,118.5,107.41Zm18.41.47,1.93,2-.12.12-1.91-2Zm-.46.39a13.7,13.7,0,0,0-1.83-.64,27.65,27.65,0,0,0-3.72-.58,10,10,0,0,1-5.81-2.13l2.53.4c2.08.33,4.21.41,6.17,1.27a29.51,29.51,0,0,1,2.74,1.54Zm-12.3-4a24.28,24.28,0,0,0,6.65,0,1.77,1.77,0,0,1,1.1.24c1.07.67,2.09,1.4,3.13,2.11l-.09.14-.91-.45a20.49,20.49,0,0,0-5.73-1.21l-4.16-.6Zm-10.87-5.64a3.59,3.59,0,0,1-2.84,2.5,4.42,4.42,0,0,0-3.66,2.24.85.85,0,0,1-1.16.37,5.84,5.84,0,0,1,2.61-2.7,9.78,9.78,0,0,0,4.94-4.49,28.28,28.28,0,0,1,1.6-2.38l.12.07C114.36,95.7,113.89,97.19,113.28,98.62Zm-8.1,4a2.48,2.48,0,0,1,1.3-2.26,10.81,10.81,0,0,1,1.63-.82,7.45,7.45,0,0,0,3.81-3.16c.2-.31.39-.62.61-.91a6.34,6.34,0,0,1,2.33-1.94,27.44,27.44,0,0,0-1.61,2.28,11.36,11.36,0,0,1-5.57,5.2,5.15,5.15,0,0,0-1.58,1.45,9.44,9.44,0,0,0-.94,1.42C105.17,103.31,105.18,103,105.18,102.59Zm-.3,3.19s.06,0,0,0a17.72,17.72,0,0,0,1.53.92c1.62.78,3.29,1.47,4.88,2.31a11.16,11.16,0,0,1,4,3.55,17,17,0,0,0-2.27-1.48c-2.14-1-4.34-1.84-6.5-2.78a5.52,5.52,0,0,1-1.39-.85C104.34,106.73,104.36,106.71,104.88,105.78Zm-2.31-6.85a5.43,5.43,0,0,0,1.08,2.79,4.35,4.35,0,0,1,.89,2.92,3,3,0,0,1-2.14,2.62l-.33-1.09,1.13,0c-.46-.44-1.5,0-1.36-1.21l1.56.35c-.67-.75-1.88-.27-2.16-1.44l2,.23,0-.17c-.26-.07-.52-.14-.78-.19-.81-.18-1.75-.05-2.22-1l3,.13v-.24c-.89-.07-1.79-.15-2.68-.2a4.18,4.18,0,0,1-2.46-1.06l3.81.34,0-.2c-2.25-.54-4.69-.13-6.78-1.45l6,.53c-1.85-.74-3.84-.52-5.8-.89,0-.26.1-.48.13-.66l3.44.16V99c-.57,0-1.16,0-1.73-.12-.86-.13-1.85.11-2.49-.8l3.85.35a1,1,0,0,0-.62-.35c-.88-.11-1.76-.18-2.64-.28-.6-.07-1.18-.17-1.78-.26l0-.25,4.45.3c-.08-.18-.16-.26-.26-.26-1.48-.13-3-.25-4.46-.36-.32,0-.65,0-1-.07s-.66-.18-1-.27l0-.11,4.89-.39v-.25c-.91,0-1.81,0-2.72.11s-1.84.16-2.77.25c0-.18,0-.4-.06-.63l3.58-.44,0-.21c-.21,0-.43,0-.64,0-.87.07-1.74.14-2.6.24-.42,0-.59-.1-.59-.54l2.23-.09v-.24a14.23,14.23,0,0,0-2,0,.86.86,0,0,1-1-.52L91,93.75c-.84-.56-1.71.06-2.43-.49A17.93,17.93,0,0,0,86.38,92a2.63,2.63,0,0,1,2-.24,12.64,12.64,0,0,0,2.12.53,50.51,50.51,0,0,1,8.72,2.41A4.94,4.94,0,0,1,102.57,98.93Zm-16,12.81c-.16.16-.33.3-.5.44a1.4,1.4,0,0,0-.44,2.08,12.66,12.66,0,0,1,.86,2c.39,1.4-.36,2.29-1.83,2.27a4.39,4.39,0,0,1-2.77-1.09c-.74-.6-1.52-1.14-2.32-1.67-.59-.39-1.25-.68-1.85-1.06a6.16,6.16,0,0,1-2.59-3.51c1.67,1.33,3.24,2.8,5.31,3.48-.66-.52-1.39-.94-2.08-1.42s-1.41-1-2.08-1.56a4.48,4.48,0,0,1-1.59-2c4.2,2.65,5.81,3.47,6.59,3.34-.67-.35-1.3-.66-1.91-1-1.46-.86-2.91-1.74-4.36-2.6a.78.78,0,0,1-.36-1c2.52,1.69,5.82,3.29,6.42,3.1-1-.49-1.91-1-2.84-1.45s-2-1.15-3-1.75c-.23-.15-.59-.31-.38-.7a32.64,32.64,0,0,0,6.1,2.95,6.26,6.26,0,0,0-1.18-.73c-1.45-.78-2.88-1.56-4.34-2.32a.63.63,0,0,1-.35-.9l6.12,3.48.14-.24q-2.94-1.74-5.89-3.47l.09-.16,2.41,1.25.09-.17-1.73-1,.08-.16a38.51,38.51,0,0,0,5.39,2.75l.08-.17L77,106.12c.77-.4.4-.92.21-1.58a12.6,12.6,0,0,0,4.55,3.21l-3.89-2.81.11-.22a3.35,3.35,0,0,1,.79.13c1.35.6,2.69,1.23,4,1.82a3.82,3.82,0,0,0,.92.11l-4.59-2,.08-.27a7.1,7.1,0,0,1,1.14.14c.9.25,1.79.56,2.69.83a1.26,1.26,0,0,0,.34,0l0-.15-2.86-1,0-.15,1.12.07c.61,0,1.22,0,1.82.07a5.8,5.8,0,0,1,1.67.3c.21.09.26.58.4.88s.32.57.42.87a1.74,1.74,0,0,1,.2.94,2.79,2.79,0,0,0,.62,2.54A1.25,1.25,0,0,1,86.61,111.74Zm.09,3c-.75-1.21-.78-1.43-.24-1.92C86.54,113.49,86.62,114.07,86.7,114.76ZM77.52,119l.66-.48c-.89.25-1.07.19-1.48-.58l.65-.4,0-.21a1.14,1.14,0,0,1-1.73-.22l.71-.63-.07-.17c-.6.4-1.2.93-1.85.16l.92-.86-.09-.11-1.37.85-.07-.15,1-1-.13-.12-.61.5c-.06-1-.11-1.86-.16-2.75l-.29.32-.16,0v-1.13l-.28.2-3.84-2.06,0-.16a13.61,13.61,0,0,1,1.82.35,7.23,7.23,0,0,1,4.21,3.85A10.54,10.54,0,0,0,78,117.56a3.91,3.91,0,0,1,1.31,2.09,2.08,2.08,0,0,1-.82,2.15c-.1-.56-.21-1.12-.32-1.68l.77-.13,0-.2C78.26,119.88,77.68,119.75,77.52,119ZM57.8,105.51l-.14.08-.7-1.26-.17.48-.61-.39L59.37,101c.66.56,1.3,1.06,1.89,1.61a4.9,4.9,0,0,0,2.06,1.24,13.39,13.39,0,0,1,2.12.76,3,3,0,0,1,1.73,1.57L66,106c0-.29,0-.53,0-.77l-.17,0q-.09.38-.18.78l-.7,0c0-.36,0-.68,0-1H64.8l-.27,1c-1.05-.14-.17-1-.67-1.41-.09.39-.17.74-.26,1.15l-.71-.3c0-.41,0-.75,0-1.09h-.17c0,.31-.1.63-.17,1-.71-.35-.43-1.09-.69-1.56h-.16c0,.45.06.89.09,1.36l-.69.06c-.1-.49-.19-1-.29-1.46l-.19,0c.05.52.09,1,.12,1.46l-.61.45c-.12-.71-.22-1.32-.34-2.1a2.09,2.09,0,0,0,0,1.71c.13.45,0,.73-.5.93l-.51-2.42a5.09,5.09,0,0,0,.25,2.6c-1.09-.64-1-1.77-1.31-2.64l-.2,0ZM19,71.53c0,.19-.07.36-.11.54l-.12.49c-.93-.14-1.06-.36-.65-1a.74.74,0,0,1,.36-.29c.52-.21,1.05-.4,1.58-.59-.07.7-.13,1.4-.2,2.08C18.54,73,19.47,71.83,19,71.53Zm-2.53-7A15.48,15.48,0,0,1,15.23,62l2.78,0,2.68,2.85-1.8,1.5a3.55,3.55,0,0,1-.43.23l-1.69,1a2.51,2.51,0,0,1,.11-.59A2.44,2.44,0,0,0,16.46,64.48ZM14.83,74c-.25.56-.48,1.09-.72,1.61l-.25,0c.12-1,.78-2,.5-3.19-.25,1-.46,1.9-.7,2.94l-.52-.5c.74-1,.46-2,0-3.2,1.16.5,2-.08,2.91-.47a2,2,0,0,1-.21,1,4,4,0,0,0-.82,2.18Zm.22.34h0l-.12,1.14c0,.44-.24.43-.53.2Zm.79-3.94-1.12.62c-.17-.83-.36-1.78-.57-2.84a7.55,7.55,0,0,1,1.34-.41c.51-.07,1.1.54,1,.93C16.24,69.36,16,70,15.84,70.43ZM14.1,67.58c-.06-.46-.13-1-.22-1.66l2,1.3Zm2.28-.39s0,.07,0,0c-.48-.33-.95-.7-1.47-1s-1.05-.48-.68-1.24c.07-.14,0-.35,0-.61.44.24.81.47,1.21.65A1.54,1.54,0,0,1,16.38,67.19Zm7.12,1.65c-.14.53-.28,1-.43,1.57l-.16,0,.21-1.28H23l-1,2.17-.13-.07.13-1.36-.18,0c-.18.81-.37,1.62-.55,2.42l-.15,0a4,4,0,0,1,1.13-3.33,2.4,2.4,0,0,1,1.55-.77c-.05.64-.1,1.21-.14,1.78l-.17,0c0-.31.07-.63.11-.94Zm-2,.33a1.59,1.59,0,0,1-1.76,1c-.11-.6-.17-1.15-.3-1.68s-.06-.65.47-.72a4.1,4.1,0,0,0,1.35-.47c1-.54,1.24-.52,1.87.22C22.52,68.06,21.79,68.51,21.48,69.17ZM21,70.59c-.32.71.25,1.69-.71,2.1-.09-.72-.18-1.4-.28-2.07h0Zm-1.38-3.12c-.13-.55-.46-1,.1-1.31.4-.23.77-.53,1.18-.74s.86.27,1.16,1ZM19.07,67c0,.17.08.37,0,.48-.41.64-.07,1.22.07,1.83.18.81-.05,1.17-.88,1.51-.27-1.58-.34-1.71-1.39-2.23A2.64,2.64,0,0,1,19.07,67Zm3.34,4.66c.18-.35.66-.53,1-.78.19.33.39.66.57,1,0,.07,0,.16,0,.11-.85.62-1.62,1.14-2.32,1.72s-1.19,1.13-1.77,1.69l-.23-.1-.37-1.89A3,3,0,0,0,22.41,71.64Zm1.37-1.24a1.9,1.9,0,0,0,.41-2c1.73,1,3.43,1.53,5.38.89a9.63,9.63,0,0,1-1.91,2.45,10.28,10.28,0,0,1-2.59,1.11Zm4.56,2.11a15.21,15.21,0,0,0,2.92-5,6.62,6.62,0,0,1,6.27-4.51,6.63,6.63,0,0,1,4.66,1.37c-.35.7-.64,1.43-1.57,1.49.06-.47.12-.91.18-1.34a1.15,1.15,0,0,0-.36.65c-.15.94-.2,1-1.13,1,0-.53-.05-1.06-.08-1.59H39c0,.56,0,1.12-.06,1.7l-1,.15c0-.62,0-1.18.06-1.74l-.19,0c0,.28-.08.56-.11.84-.08,1-.08,1-1.13,1.19-.08-.6-.17-1.19-.25-1.79-.39.63-.06,1.27-.09,1.92l-1.24.7c-.06-.76-.12-1.45-.18-2.13h-.22a7.11,7.11,0,0,0,0,1.46A1.51,1.51,0,0,1,34,68.65c-.08-.77-.17-1.51-.25-2.26h-.18c-.2,1.1.29,2.25-.28,3.35l-.93-2.37-.16,0a3.61,3.61,0,0,0,.11.67c.2.6.46,1.18.62,1.79A4.28,4.28,0,0,1,33,71h-.19L31.6,69l-.19.11c.29.54.53,1.12.87,1.63a1.89,1.89,0,0,1,.18,1.85l-.88-1.13c0,.94,1.19,1.5.63,2.61L31.1,72.8l-.19.16a8.66,8.66,0,0,0,.85,1.14c.59.58.46,1.22.31,2l-1.75-2-.15.12a2.42,2.42,0,0,0,.21.39c.42.53.81,1.08,1.27,1.56A1.34,1.34,0,0,1,32,77.5l-1.6-1.6-.18.17a10.77,10.77,0,0,1,1.51,1.75,10.93,10.93,0,0,1,.7,2.26c-1-.79-1.82-1.44-2.64-2.12a11.83,11.83,0,0,1-1.45-1.38A2.81,2.81,0,0,1,28.34,72.51ZM26,52.37c-.47.14-.63-.09-.62-.49,0-1.11.06-2.21.1-3.32,0-.24,0-.48,0-.71l-.28,0c-.09,1.35-.18,2.71-.27,4-.87-1.09-.29-2.38-.39-3.58h-.15c-.08.52-.15,1.05-.25,1.73-.28-.63-.78-1-.58-1.61a8.49,8.49,0,0,1,1.92-3.28A.57.57,0,0,1,26,45a23.38,23.38,0,0,1,3,.6,21.73,21.73,0,0,0,4.1,1.15A3.39,3.39,0,0,1,36,49c.4,1.11.66,2.27,1,3.49l-.91.08c0-.58,0-1.08,0-1.57h-.2c0,.51-.09,1-.14,1.59l-.59-.06c0-.76.1-1.47.15-2.18l-.2,0-.27,2.11A1.41,1.41,0,0,1,34.15,51c0-.56.13-1.13.16-1.69a1.3,1.3,0,0,0-1.19-1.51A5.6,5.6,0,0,0,28,49.49a23.39,23.39,0,0,0-1.64,2.23c.1-1.26.2-2.48.29-3.71A12.71,12.71,0,0,0,26,52.37Zm13-2.39a3.47,3.47,0,0,1,.32.92,1.87,1.87,0,0,1-.16.67l-.15,0c-.11-.43-.23-.85-.35-1.28l-.19.06c.06.34.11.68.2,1s.09.68-.44.75c-.15-.83-.29-1.66-.43-2.49l-.2,0a21.17,21.17,0,0,0,.27,2.12c.11.55-.06.7-.56.65-.32-3-.8-5.9-4.77-6.49.36-.23.6-.42.86-.55.74-.36,1.5-.69,2.23-1.07a1.06,1.06,0,0,1,1.15,0,9.23,9.23,0,0,1,2.32,2.87.36.36,0,0,1,0,.33A2.42,2.42,0,0,0,39.06,50Zm-5.2-5.32a10,10,0,0,0-1.45.84.9.9,0,0,1-.87.23c-1.76-.41-3.43-1.24-5.32-1.19a6.08,6.08,0,0,1,1-.78,5.28,5.28,0,0,1,4.13-.82c1.25.33,2.47.74,3.74,1.12C34.72,44.24,34.28,44.44,33.86,44.66Zm-7.24,8.76a6.3,6.3,0,0,1,1.78-3.58,5.54,5.54,0,0,1,4.25-1.47c.85,0,1.05.34,1,1.19a14,14,0,0,0-.11,1.7,1.76,1.76,0,0,0,1.6,1.85,5.75,5.75,0,0,0,4-.8c1-.65,1.08-1,.65-2.09a4,4,0,0,1-.42-1.38,1.79,1.79,0,0,1,.49-1.22c.4-.37.87,0,1.25.26a.81.81,0,0,1,.14.12c.89,1,1.86,2,2.64,3.18.38.54,1,1.25.28,2-.09.11,0,.36,0,.53a4.45,4.45,0,0,0,.33,1.54,4.74,4.74,0,0,1,.37,3.46c-.13.88-.29,1.75-.42,2.6l-.66.1a5.31,5.31,0,0,0,.54-3.26c-.27,1-.55,2.07-.84,3.13,0-.43-.11-.86-.11-1.29,0-.62.07-1.25.08-1.87,0-.43,0-.85-.07-1.27h-.16c-.06,1.11-.11,2.22-.16,3.33l-.25.07a2.23,2.23,0,0,1-.28-.61c-.13-1.19-.2-2.38-.34-3.57A6.94,6.94,0,0,0,41.81,55c.07,1.65.21,3.25.33,4.86a1,1,0,0,1-.22.61c-.63.77-1.3,1.52-2,2.35l-.39-.07a27.45,27.45,0,0,0-.74-7.84,45.42,45.42,0,0,1,.34,7.74l-.42,0-.37,0a22.85,22.85,0,0,0-.95-6.28c.07,1.07.24,2.12.35,3.17s.14,1.82.18,2.73c0,.12-.12.25-.19.38a1.69,1.69,0,0,1-.32-.27,1.38,1.38,0,0,1-.15-.4L36.17,58c-.08-.32-.19-.63-.29-.94l-.23.07c.47,1.82.93,3.65,1.4,5.5l-.65.1L35,57.81l-.18,0c.19.81.34,1.63.56,2.43s.51,1.62.77,2.45l-.72.15c-.58-2-1.15-4-1.73-5.92a18.72,18.72,0,0,0,1.47,6l-1,.44c-.22-.71-.43-1.37-.63-2l-.19.05c.18.72.36,1.45.54,2.2l-.51.27c-.52-1-1-1.93-1.5-2.88l-.14.07a7,7,0,0,0,.25.73c.3.66.64,1.32.92,2,.07.16,0,.39,0,.58a23.43,23.43,0,0,1-3.57-6.15,10.27,10.27,0,0,0,1.24,3.31c.59,1.06,1.23,2.09,1.85,3.14l-.86.87c-.83-1.17-1.7-2.25-2.4-3.43s-1.23-2.48-1.84-3.74a16,16,0,0,0,4.11,7.44l-.29.4c-.52-.38-1-.72-1.49-1.09-2.56-2-4-4.56-3.6-7.88C26.07,56,26.36,54.69,26.62,53.42ZM44.8,61.28c.32-1.31.51-2.65.75-4a1.18,1.18,0,0,1,.7,1.14c.06.65.15,1.29.25,1.93A5.21,5.21,0,0,1,46.14,63a.66.66,0,0,1-.27.37c-.6.21-1.22.38-2,.63A26.3,26.3,0,0,0,44.8,61.28Zm-1.66,3.26-2.73-1.7a5.83,5.83,0,0,1,2.24-2.19,4.34,4.34,0,0,0,.42,1,4.57,4.57,0,0,0,.9.65C43.72,62.94,43.43,63.75,43.14,64.54ZM28.05,77.36l-.29.26,1.22.45c-.51.27-1.1,0-1.62.6,1.26-.08,2.42-.33,3.28.72-1.09,0-2.16-.33-3.2.15a1.34,1.34,0,0,0,.51.11c1.05.07,2.1.12,3.14.23a2.26,2.26,0,0,1,.69.32c-1.31.09-2.61-.28-3.8.46l3.31,0v.21c-.85.15-1.7.27-2.54.47a4.37,4.37,0,0,0-2.3,1l3.78-1,.08.26c-.65.21-1.3.4-1.94.63a3.36,3.36,0,0,0-1.84,1l3.22-1.09c-.13.55-.14.54-1.24,1.07-.47.23-.91.51-1.36.77l.16.32,2.1-1.16.12.19c-.39.84-1.59.66-2,1.52l2-.84c0,1.08-1.17,1.08-1.43,1.89L29.52,85c0,.8,0,.79-.58,1.21-.25.17-.48.38-.72.58l.11.14,1.09-.64.11.11L28.72,88c-.95-.85-1.88-1.55-2.65-2.39a3.44,3.44,0,0,1-.45-4.43,8.19,8.19,0,0,0,1.18-3.74,11,11,0,0,1,.19-1.3Zm.53,12.39a4.48,4.48,0,0,1,.65-1.36,4.87,4.87,0,0,0,.89-3.22,14.91,14.91,0,0,1,0-1.64,2.36,2.36,0,0,1,2.56-2.33c.06.68.11,1.36.16,2l-1,.3.06.19,1.06-.11.19,1-.9.12v.16l1,.11c0,.19.09.38.13.54L32.25,86c.51.25,1-.47,1.34.24l-1.34.54.07.19c.41-.09.86-.32,1.21-.22s.52.55.79.88c-1.06.44-2.13.49-2.87,1.26.73-.16,1.43-.41,2.14-.62.94-.27,1.11-.14,1.24.83L33,89.69l.08.22c.46-.12.91-.26,1.38-.37.75-.17.8-.13,1,.64-.71.21-1.5.24-2,.94l1.61-.49c.56-.18.88,0,1,.58l-2.24.69.07.21,2.41-.57c0,.16.06.28.09.39l.09.34c-1.83.87-1.83.87-1.91,1.21l2.08-.78.43.68c-.54.48-1.31.65-1.62,1.38a6.83,6.83,0,0,0,1.13-.69c.51-.38,1-.5,1.3.16l-1.14,1.1.15.15,1.33-1,.51.58L37.59,96.4l.16.12,1.15-1.07c.44.36.39.64.07,1s-.79,1-1.16,1.55a6.21,6.21,0,0,0-.35.62l.18.11,1.85-2.24a.9.9,0,0,1,0,1.37,3.78,3.78,0,0,0-.46.87l.17.09c.27-.35.55-.7.79-1,.92.66-.11,1.28,0,2,.11-.08.18-.1.21-.15l.39-.74c.69.6.71.74.24,1.47-.25.39-.47.79-.71,1.19l.17.11,1.21-1.72,1.41,1.17a11.29,11.29,0,0,1-.8,1.34,1.89,1.89,0,0,1-2.78.5,7.19,7.19,0,0,1-1.88-1.62c-1.06-1.49-2-3-2.94-4.63a8,8,0,0,0-3-3,23.3,23.3,0,0,1-2-1.26A2.37,2.37,0,0,1,28.58,89.75Zm25.15-3.49A8.83,8.83,0,0,1,54,87.64a4.9,4.9,0,0,1-2,4.55c-.71-1.33-1.48-.12-2.22-.08l.06-.3-1.42.73-.07-.14,1-1-.13-.14-1.38,1.15c-.19-.69-.36-1.28-.53-1.88.71.8,1.1.94,1.61.46-.78,0-1.15-.41-1.35-1.2a11.29,11.29,0,0,0,1.15.58,9.13,9.13,0,0,0,1.06.27l.09-.27-1.63-.59.06-.22c.87,0,1.71.69,2.68.25l-2.12-.49A1.13,1.13,0,0,1,50,88.57a14.84,14.84,0,0,0,1.63-.09v-.2l-2,0c.23-.61.24-.59.79-.61.7,0,1.4-.1,2.1-.15v-.28H50.17l0-.26c1-.22,2,0,2.91-.59l-2.74.2c0-.75,0-.73.65-.83s1.16-.23,1.74-.34l0-.19-2.34.27-.11-.7,2.31-.6L52.45,84c-.62.12-1.26.22-1.87.38s-.71,0-.77-.46l2.82-.66,0-.21c-.26,0-.53,0-.79.08-.64.11-1.28.26-1.92.34-.21,0-.44-.15-.67-.23l.07-.22,3.24-.92,0-.19a5.83,5.83,0,0,0-.84.07c-.79.19-1.57.42-2.36.61a1.6,1.6,0,0,1-.47-.06c.09-.11.16-.27.28-.33.58-.28,1.18-.53,1.78-.79.19-.09.39-.16.59-.24l-.09-.24L48.52,82c.4-1.13,1.66-1.1,2.41-1.93l-2.53,1a3.65,3.65,0,0,1,.61-.8c.62-.46,1.28-.86,1.92-1.29.2-.14.39-.31.58-.47l-.11-.16L48.73,80c-.1-.79-.1-.78.56-1.17l1.49-.92-.11-.19-2.09,1.15-.24-.61L50,77.1l-.12-.2-1.76,1-.34-.49,1.62-1-.12-.2-1.76,1-.43-.35,1.82-1.31-.14-.21c-.57.37-1.16.7-1.69,1.11a.56.56,0,0,1-.88-.06l2.18-1.56-.14-.21c-.68.43-1.38.83-2,1.31a1.12,1.12,0,0,1-1.32.18L46.33,75l-.11-.16c-.35.23-.71.47-1,.71s-.7.52-1,.79L44,76.14c.18-.21.36-.41.55-.61l-.12-.12c-.25.22-.48.45-.74.66s-.5.34-.74.51a1.11,1.11,0,0,1,.26-.61c.12-.15.25-.28.37-.43l-.1-.1-.84.67c.18-.49.27-.82.42-1.12s.39-.56.58-.85a.89.89,0,0,0-.48-1.46l-.66-.25,0-.21a15.85,15.85,0,0,1,2.13-.91,3,3,0,0,1,3.61,1.13c.15.22.33.41.46.64a5.09,5.09,0,0,0,2.93,2.26,8.86,8.86,0,0,1,.85.34,3.64,3.64,0,0,1,2.12,4.16,10.18,10.18,0,0,1-.48,1.51A7.8,7.8,0,0,0,53.73,86.26Zm-10.47-8.1c-.1-.39-.22-.78-.34-1.2,2.22-1.12,5.59.64,5.13,3.44a4.15,4.15,0,0,0,.87,3.48,2.83,2.83,0,0,1,.29.47c1.08,2.09-.6,5-2.23,5.09-.08-.25-.17-.52-.25-.79-.54-1.64-1.84-3.26-4.27-2.87a8.37,8.37,0,0,1-2,0,1.52,1.52,0,0,1-1.38-1.33,3,3,0,0,1,1.71-3.15c.55-.35,1.13-.64,1.67-1A1.83,1.83,0,0,0,43.26,78.16Zm.16-4.8a4.71,4.71,0,0,1-.53,1,2.93,2.93,0,0,0-.67,2.94c.09.34.21.66.31,1A1.24,1.24,0,0,1,42,79.94c-.39.29-.82.52-1.23.79a4.57,4.57,0,0,0-2,2.41,2.48,2.48,0,0,0,2.09,3.41,10.38,10.38,0,0,0,2,.09,2.94,2.94,0,0,1,2.81,1.48,10,10,0,0,1,.84,1.62c.26.66.43,1.35.65,2a1.27,1.27,0,0,0,1.69,1c.6-.11,1.18-.3,1.77-.46l.56-.15A7.07,7.07,0,0,1,48.22,100c-1.65,1-4.44,1.1-5.29.27l1.65-.21v-.17c-1-.09-2.11.43-3-.72a10.42,10.42,0,0,0,4.92-.23,1.28,1.28,0,0,0-.67-.05,9.86,9.86,0,0,1-3.79,0c-.46-.09-1.06,0-1.17-.72.71,0,1.41.1,2.12.09A17.73,17.73,0,0,0,45,98.06c.67-.1,1.33-.25,2-.38L47,97.47l-.32,0a16.45,16.45,0,0,1-5.42.25c-.6-.09-.87-.32-.95-.87,2.79.67,7.26-.77,8.13-1.58l-1.78.59a11.56,11.56,0,0,1-5.85.66c-.35-.06-.76-.06-.91-.53,3.17-.12,7-1.12,7.5-2l-.32.12c-2.25.82-4.48,1.71-7,1.45a3.25,3.25,0,0,1-.81-.32l.07-.16A8.61,8.61,0,0,0,43.27,94c-1.46.25-2.86.94-4.39.44l2.8-1.1-.09-.22c-.9.3-1.79.62-2.69.9a1.87,1.87,0,0,1-.66,0v-.19a8.72,8.72,0,0,0,3-1.63l-3.29,1.4-.08-.17,2.72-1.59-.14-.24-2.74,1.23a10.28,10.28,0,0,1,1.15-1.23c.41-.37.85-.71,1.28-1.06l-.18-.21-2.89,2.36c.29-1.11,1.21-1.57,1.76-2.28l-.17-.17-1.73,1.54c-.48-.58-.27-1.06.28-1.5.38-.3.73-.64,1.09-1l-.15-.17-1.68,1.38c-.39-.36-.37-.68.07-1s.88-.77,1.32-1.16l.67-.63-.15-.17-2.45,2c-.06-.12-.19-.3-.16-.32.83-.87,1.68-1.73,2.61-2.69a10.29,10.29,0,0,0-2.87,2.17c-.08-.18-.21-.39-.17-.43.72-.82,1.46-1.62,2.2-2.42l-.12-.13-2.3,2.05a.74.74,0,0,1,.1-.67c.62-.6,1.28-1.17,1.93-1.75l.38-.36-.17-.2L34.68,87c0-.08-.11-.16-.1-.18L37,83.75c-1.18.57-1.79,1.64-2.67,2.5-.07-.23-.14-.52,0-.67.78-1,1.61-2.06,2.43-3.09A6.26,6.26,0,0,1,37.2,82l-.15-.14c-1.37.82-2.17,2.2-3.21,3.35.43-2.83,2.55-4.57,4.28-6.56A16.46,16.46,0,0,0,33.55,84a16.77,16.77,0,0,1,1.05-3,27.77,27.77,0,0,1,1.79-2.68c-1.44,1.06-2.16,2.67-3.14,4.17a5.29,5.29,0,0,1,.23-2.75A9.88,9.88,0,0,1,38.26,74a7.69,7.69,0,0,1,3.93-1.13A3.89,3.89,0,0,1,43.42,73.36Zm-.09,27.92,1.4.34-.49.78c.62-.17.8-1,1.59-.78l-.36,1.26c.68-.48.42-1.67,1.58-1.39-.18.5-.36,1-.56,1.57.92-.47.47-1.9,1.69-2l-.34,1.84.22.06a7.86,7.86,0,0,1,.27-1c.22-.52,0-1.29.84-1.51-.13.84-.26,1.63-.38,2.42l.21,0c.14-.56.27-1.12.42-1.68s0-1.21.71-1.68c-.06,1.15-.12,2.19-.17,3.23.17-.07.27-.17.28-.27.08-1,.13-1.93.24-2.89a7.64,7.64,0,0,1,.31-1.23l.25,0,.36,3.69.18,0a16.22,16.22,0,0,0-.32-4.5l.25,0c.31,1.1.61,2.2.92,3.3.28-1.45-.43-2.71-.8-4l.25-.1c.53,1,1,2,1.57,3a1.48,1.48,0,0,0-.12-.47c-.37-.9-.8-1.77-1.2-2.66a7.93,7.93,0,0,1-.25-.83l.22-.09,2.46,3.5a.75.75,0,0,0-.09-.55c-.72-1.06-1.46-2.1-2.18-3.15A4,4,0,0,1,52,95l.21-.15c.48.44,1,.84,1.45,1.32.69.77,1.32,1.6,2,2.39a3.09,3.09,0,0,0,.43.37l.13-.14-2.08-2.7a4,4,0,0,1,2.67,1.7,3.61,3.61,0,0,0,.56.46l.12-.14-1.36-1.59c1.16-.05,1.6,1.08,2.47,1.36l.1-.13-1.41-1.28a.77.77,0,0,1,1.14.06c.29.27.63.49.94.74l.16-.19-1.19-1a.79.79,0,0,1,1.31-.11,3.8,3.8,0,0,0,.83.42l.09-.17-1.25-.9.67-.63.82.73.12-.12-.74-1c.26-.06.53-.2.6-.13.38.35.9.56,1,1.18a3.17,3.17,0,0,1-1.28,3.37,23,23,0,0,0-4.27,4.16,4.23,4.23,0,0,1-3.71,1.57,10.55,10.55,0,0,0-3.13.19c-2.68.71-4.78-.34-6.85-1.86Zm20.09-3.4c0-1.6-.07-3.2-.1-4.94,1,.75.95.76,1.12,1.74s.42,2.18.66,3.27c0,.19.23.35.42.64-.31-1.59-.59-3-.89-4.53a1.44,1.44,0,0,1,1,1.12c.33,1.36.76,2.7,1.17,4a3.61,3.61,0,0,0,.42.7l.08-.07L65.84,95a1.49,1.49,0,0,1,1,1.06c.36,1.31.85,2.58,1.32,3.86.07.19.3.32.5.52l-1.6-4.56a1.82,1.82,0,0,1,1.16,1.32c.28,1,.65,2,1,3.06a3.54,3.54,0,0,0,.39.59l.1-.07L68.46,96.9l.2-.13a7.11,7.11,0,0,1,.78,1.07c.59,1.16,1.11,2.35,1.69,3.52a1.48,1.48,0,0,0,.32.4c-.54-1.32-1.08-2.64-1.62-4a2.15,2.15,0,0,1,1.44,1.57,23.16,23.16,0,0,0,1.09,2.58,2.44,2.44,0,0,0,.45.53l.06-.08c-.5-1.2-1-2.4-1.51-3.64A1.8,1.8,0,0,1,72.72,100a24.38,24.38,0,0,0,1.33,2.46,3.66,3.66,0,0,0,.66.6l-2-3.62a1.89,1.89,0,0,1,1.66,1.19,12,12,0,0,0,1.24,2,4.23,4.23,0,0,0,.76.64l-1.93-3.13a3.25,3.25,0,0,1,.79.08,1.21,1.21,0,0,1,1.12.78,14.14,14.14,0,0,0,.91,1.66,5,5,0,0,0,.54.61l.11-.1c-.45-.81-.89-1.63-1.33-2.42,1.69-.09,2.29,1.49,3.44,2.2l.11-.14c-.43-.45-.85-.91-1.27-1.36l.12-.17,4.78,2.4c-.45,0-.89,0-1.33,0a11.15,11.15,0,0,0-2.46.19,7.23,7.23,0,0,1-2.8.35c-.22,0-.45,0-.71,0l.48,1.28c-.32.07-.55.13-.78.17-2.48.41-4.63-.5-6.71-1.68-.53-.3-1-.77-1.73-.49-.11,0-.32-.06-.45-.14a26.38,26.38,0,0,1-5.58-4.71c1.28-1.73.69-3.47.05-5.24L63,93A13.55,13.55,0,0,0,63.42,97.88ZM89,95l-.14.08c.06.3.11.61.16.92L89,96l-.45-.77-.16.07c.09.28.18.55.26.83.15.46.15.46-.32.53-.58-1.64-.58-1.64-.94-1.75.2.63.4,1.25.62,1.92l-.58.08a5.43,5.43,0,0,0-1.14-2.57c.19.78.44,1.54.7,2.3.13.39,0,.52-.44.51a13,13,0,0,0-1.34-2.56l-.15.07,1.28,2.61-.7.2c-.57-1.79-.94-2.38-1.48-2.43.31.63.64,1.29,1,2,.25.51.12.84-.47.94-1.37-2.58-1.51-2.77-2.16-2.81a1.12,1.12,0,0,0,.09.22c.52.84,1,1.67,1.55,2.52.08.14,0,.38,0,.7-.87-1-1.32-2.17-2.43-2.68.58.84,1.21,1.63,1.8,2.44.3.41.28.43-.19.81-.75-1.14-1.39-2.39-2.85-2.79a.64.64,0,0,0,.26.32,6.41,6.41,0,0,1,2.19,2.62,1.73,1.73,0,0,1,0,.66,11.56,11.56,0,0,0-2.67-1.81,3.51,3.51,0,0,1-1.77-1.64c-.34-.47-.62-1-.94-1.49a14.68,14.68,0,0,0,1.59-.36c2.08-.72,4.14-1.46,6.2-2.23a1.3,1.3,0,0,1,1.4.16c.58.43,1.2.82,1.82,1.2a3.41,3.41,0,0,1,1.79,2.72h-1a5.36,5.36,0,0,0,.05-1A2,2,0,0,0,89,95Zm-7.94,5.31-1.3.13a12.21,12.21,0,0,1-1.33.13,9.75,9.75,0,0,1-1.2-.12v-.16l2.25-.35v-.17c-1.46-.17-3,.7-4.49-.1l3.16-.48,0-.18a5.42,5.42,0,0,0-.57,0c-1,.11-1.89.26-2.84.34a8.06,8.06,0,0,1-1.37-.14V99l3.46-.66,0-.25c-1,.16-2,.26-3,.5A2.21,2.21,0,0,1,71.51,98l4.32-.61,0-.25a3.38,3.38,0,0,0-.45,0c-1.23.14-2.46.21-3.67.45-.79.16-1.19-.23-1.71-.73l4.23-1,0-.2a4,4,0,0,0-.6,0c-1.1.23-2.2.42-3.27.74a1.27,1.27,0,0,1-1.56-.5c1.76-.32,3.4-1,5.21-.85a14.54,14.54,0,0,0,2.19,0,.81.81,0,0,1,.86.49,9.92,9.92,0,0,0,3.47,4c1.76,1,2.81,2.7,4.21,4.09l-5.75-2.79,2.19-.34Zm-8.41-6.71c-1.33.24-2.66.56-4-.08l.94-.33c.27-.09.54-.2.81-.31l-.06-.18c-1.4.26-2.77,1.15-4.39.14.59-.2,1.09-.54,1.54-.48a20.92,20.92,0,0,0,7.06-.17.61.61,0,0,1,.55.19c.43.63.81,1.3,1.3,2.1l-4.56-.28V94l.82-.23Zm-6.19.11c-.69.43-.85.39-1.55-.39Zm2.49.66c-.9.27-1.8,1.06-2.65-.09C67.24,93.64,68.1,94.15,69,94.35Zm2.55.5c-1,.24-1.86.44-2.74.69a.85.85,0,0,1-1-.35A4.59,4.59,0,0,1,71.53,94.85Zm8.11,3.46.14-.19,3,2.29-.17.21ZM83,92.91c-1.78.53-3.6,1-5.41,1.4a.63.63,0,0,1-.56-.17c-.47-.7-.9-1.43-1.35-2.15,0,0,.06-.07.09-.08l5-1.56a1.19,1.19,0,0,1,.46,0l5.55,1,.07.25a2.63,2.63,0,0,0-.49.07C85.2,92.06,84.11,92.57,83,92.91Zm-7.07-1.53a.91.91,0,0,1-1.27-.6c1.79-.15,3.42-1,5.22-.56C78.53,90.65,77.2,91,75.89,91.38Zm-2.47-1.64,3.47.18C74.83,90.6,74.3,90.58,73.42,89.74Zm.2.84c-2.94.3-5.77-.14-8.62-.25,0-.53-.06-1-.09-1.57a2.14,2.14,0,0,1,.36,0c2.2.31,4.4.67,6.61.9A2.6,2.6,0,0,1,73.62,90.58ZM66,90.85a33,33,0,0,0,7.63.14c.53-.07.67.28.87.63a22.31,22.31,0,0,1-9.94-.19c.08-.21.15-.42.25-.69Zm.49,1.33c-.89.92-1.86.54-2.92.35.31-.29.57-.76.82-.75A13.59,13.59,0,0,1,66.53,92.18Zm8,14.77,0,.14-2.27,0v.21l2,.17c-.95.32-2,.06-2.92.35,0,.07,0,.14,0,.21l2.72,0c.11.45-.08.52-.46.53-.68,0-1.36.08-2,.13v.23c.67,0,1.33,0,2,0a1.62,1.62,0,0,1,.45.16,1.54,1.54,0,0,1-.42.28c-.5.12-1,.19-1.5.29l0,.21.55,0a11,11,0,0,1,1.14-.1c.07,0,.14.21.21.32-.39.11-.82.39-1.15.31a15.28,15.28,0,0,1-2.08-.85c-.32-.55-.61-1.07-.92-1.59-.08-.14-.28-.27-.26-.39.1-.78.23-1.55.4-2.32,0-.09.34-.21.45-.16a11.45,11.45,0,0,0,4,1.28c.08,0,.14.11.27.23l-1.34-.11,0,.15Zm0,4.67-1-1,.69-.38C74.25,110.76,74.35,111.13,74.47,111.62Zm-5.38-4.53c-.61-.4-1.32-.63-1.63-1.46a2.29,2.29,0,0,0-1-1.06c-.8-.47-1.67-.82-2.51-1.21a10.91,10.91,0,0,1-1.55-.7c-.92-.63-1.8-1.34-2.71-2L61.43,99c.92.9,1.76,1.81,2.7,2.61s2,1.51,3,2.22a1,1,0,0,0,.78.18c.88-.36,1.3.39,1.77.53C69.44,105.48,69.27,106.27,69.09,107.09ZM59,107.25c.85-1.13,2.38-1.78,3.4-1.27a10.26,10.26,0,0,0,3.95.91,4.66,4.66,0,0,1,3.88,2.63c-.5,0-1,0-1.47,0s-.62-.18-.5-.63a3,3,0,0,0,0-.67H68.1l-.21.84h-.17l0-1.2h-.13l-.24.87-.66-.23c0-.38,0-.72,0-1.06l-.14,0-.25.94-1.06-.22c0-.33,0-.6,0-.86-.44.94-.44.94-1.94.9,0-.41,0-.83-.09-1.39-.47.64.23,1.64-1,1.74,0-.44,0-.86-.05-1.28h-.19c0,.4-.1.79-.15,1.22a3.3,3.3,0,0,0-3.3-.65C58.78,107.55,58.87,107.39,59,107.25Zm.14,1.16a2.49,2.49,0,0,1,2.55.53l-1.16,1c-.06-.49-.11-.93-.17-1.38h-.17c0,.65,0,1.3,0,2l-.16,0-.91-1.49-.31.18.78,1.31-.09,0-1.19-1.16-.14.13.84,1.18c-1.07.3-.9-1-1.68-1l.89,1.43c-.93-.05-1.1-1-1.91-1.19.42.54.75.94,1.09,1.37-.87.39-.91-.66-1.64-.79.32.44.57.77.81,1.11l0,.07L55.35,111l-.11.16,1,.87c-1.07,0-1.57-.8-2.31-1.08l-.12.17,1.69,1.3-.11.18-2-1.06-.11.18L55,112.87l-.07.2-2.19-.67-.07.17,2,.89c-1.09.55-1.79-.22-2.59-.44a3.37,3.37,0,0,0,2,1.08c-.88.65-1.61-.17-2.37-.12l0,.15,1.85.67-.43.72-1.38-.29,0,.16,1.29.47-.3.55-1.1.12c-.39-.5-.7-.92-1-1.32s-.71-.74-1-1.15a2.23,2.23,0,0,1,.44-3,4,4,0,0,1,3.33-.79,5.16,5.16,0,0,0,3.22-.65A20.45,20.45,0,0,1,59.12,108.41Zm-3.4,11,1.83-4.19c.08,1.94-1,3.65-.94,5.57.32-1.1.64-2.19.94-3.25,1,.6.64,1.38.44,2.14a.85.85,0,0,0-.06.17c-.07.48-.13,1-.19,1.43l.18,0c.21-.88.43-1.75.64-2.63.52.13.59.42.53.84a17.75,17.75,0,0,0-.16,1.92,3.8,3.8,0,0,0,.16.87l.12,0c.07-1,.15-2.11.22-3.15.67,0,.78.37.76.92a15.82,15.82,0,0,0,.07,2.06,2.07,2.07,0,0,0,.25.63l.09-.06c0-1-.05-2.11-.08-3.3.78.42.46,1.07.59,1.55s.23,1.06.34,1.59l.18,0c0-.19,0-.38,0-.57-.07-.53-.17-1.05-.2-1.57a3.14,3.14,0,0,1,.14-.73,3,3,0,0,1,.28.64c.14.57.23,1.15.36,1.72a1.22,1.22,0,0,0,.2.35l.11-.06c-.15-.86-.3-1.72-.45-2.63l1.07,0a12.32,12.32,0,0,0,.38,2.74l.18,0c-.06-.92-.12-1.83-.18-2.77l.87-.16c.12.72.23,1.4.35,2.09l.25,0c-.07-.71-.13-1.43-.19-2.18l1-.22c.19.79.37,1.52.55,2.25l.26,0c-.12-.76-.23-1.51-.35-2.26.47-.2.79-.17,1,.37a6.63,6.63,0,0,0,.66,1.11l.3-.16-.92-1.35.26-.23a3,3,0,0,1,.71.39,4.08,4.08,0,0,1,.48.78l.13-.05c-.1-.31-.19-.62-.28-.92l2.28.09a3.08,3.08,0,0,1-1.65,1.81q-.81.35-1.65.63A5.53,5.53,0,0,0,65,123.05a6.23,6.23,0,0,1-3,1.85,2.29,2.29,0,0,1-1.24.06,14.64,14.64,0,0,1-2-.85c-1.22-.56-2.47-1.07-3.63-1.72a4,4,0,0,1-2.28-4.92,8.25,8.25,0,0,1,3.51-5.14,17.9,17.9,0,0,1,2.24-1.22l.1.21c-.68.84-1.4,1.66-2,2.53a5.85,5.85,0,0,0-1.45,2.84,21.29,21.29,0,0,1,4.32-5.53c-.36.66-.85,1.25-1.25,1.89s-.71,1.36-1.05,2-.71,1.41-1,2.14-.49,1.37-.73,2.06Zm-2.65,2.13c-.31.38-.59.71-.86,1.05l.14.12c.32-.29.64-.58,1-.9l.52.51-.64,1.21.15.08.8-1.06.5.34-.78,1.5.18.1L55,123l.64.38c-.19.32-.38.6-.54.9s-.27.58-.4.88l.16.07c.38-.57.75-1.15,1.13-1.71l.76.27c-.36.69-1,1.2-1,2,.4-.51.73-1.06,1.11-1.58.11-.14.36-.17.54-.25l.06.15-1,2.15.21.11c.41-.71.81-1.42,1.23-2.16l.42.23-.87,2,.19.09,1-1.88.55.3-.34,1.61.22.06c.14-.47.29-.94.44-1.43.5,0,.61.34.56.79a5.61,5.61,0,0,0,0,.82h.21c.06-.38.11-.76.17-1.14l.42-.15v.82H61l.21-.51.84,0c-.36.43-.63.81-.94,1.15a2.85,2.85,0,0,1-3.93.65,21.81,21.81,0,0,0-2.83-1.27c-2.19-.75-2.8-2.37-2.5-4.46a8.09,8.09,0,0,1,.56-1.6C52.68,120.81,52.89,121.17,53.07,121.49Zm9.91,4,.26,2.22.24,0c0-.55,0-1.1-.12-1.65s.18-.82.73-.9c.17,1,0,2.06.47,3a22.84,22.84,0,0,0-.09-2.75.77.77,0,0,1,.61-.93c.18,1.36.35,2.68.52,4l.27,0,0-.55c-.11-1-.16-2-.33-3a1.61,1.61,0,0,1,.84-1.72,22.28,22.28,0,0,0,1.06,5,1.24,1.24,0,0,0,0-.6c-.22-1.46-.44-2.92-.67-4.38,0-.34,0-.58.42-.64a13,13,0,0,0,1.19,4.2,1.59,1.59,0,0,0,0-.58c-.25-1.17-.5-2.34-.71-3.51,0-.16.11-.35.21-.62.65,1,.76,2.18,1.45,3l.19-.08-1.14-3,.2-.12,1.76,2.2.18-.14-1.55-2.2.62-.27,1.66,1.88.17-.15-1.51-1.94.47-.37L72,122.09l.15-.19c-.41-.37-.83-.72-1.23-1.1a1.34,1.34,0,0,1-.2-.47,1.36,1.36,0,0,1,.5,0c.35.19.68.43,1,.65l.14-.18a11.86,11.86,0,0,0-1-.74c-.37-.21-.39-.4-.1-.71l1.64.77.1-.2-1.79-1.06c.75-1,1.39.2,2.07.12l0-.16-1.15-.65.64-.6a3.82,3.82,0,0,1,.64,4.18,16.09,16.09,0,0,0-1.06,2.78,12.14,12.14,0,0,1-2.75,5.5,3,3,0,0,1-3.83.7c-1.68-.76-2.75-2.29-4.15-3.42Zm6.3-7.47a8.9,8.9,0,0,0-5,.47,5.73,5.73,0,0,1-.7.23,5.86,5.86,0,0,1-4.22-.23,2.32,2.32,0,0,1-1.42-2.6,24,24,0,0,1,1.34-3.44,16.3,16.3,0,0,1,1.12-1.85l-.5,2.75.23.05c.33-1.42.36-3,1.64-4-.22.83-.5,1.63-.79,2.43a4.42,4.42,0,0,0-.41,2.48.58.58,0,0,0,.13-.26c.49-1.48,1-3,1.48-4.45.19-.56.37-.7.76-.74-.65,2-1.48,3.91-1.36,6a.54.54,0,0,0,.2-.32,22.81,22.81,0,0,1,1.49-5.51c.14-.36.35-.58.79-.43-.6,1.8-1.38,3.55-1.14,5.51.18-.63.24-1.29.39-1.92a14.22,14.22,0,0,1,.56-1.93,3.61,3.61,0,0,1,.91-1.82,28.72,28.72,0,0,0-.33,6.22h.15q.23-3,.45-6c.53-.06.66.13.71.5.14,1.19.32,2.36.47,3.55a2.54,2.54,0,0,1,0,.39l.27-.11c-.16-1.35-.31-2.7-.47-4l.24,0c.49,1.42,1,2.85,1.48,4.28l.23-.08-1.18-3.76c1.15,1.21,1.56,2.83,2.4,4.21l.18-.09c-.51-1.16-1-2.33-1.52-3.49a14.13,14.13,0,0,1,2,3.26l.21-.09c-.36-.78-.72-1.56-1.09-2.38,1,.56,1.23,1.69,1.83,2.51l.23-.12-1-1.55.16-.14c.26.1.53.18.78.29a3.55,3.55,0,0,1,2.15,3.4A3.36,3.36,0,0,1,69.28,118Zm17.09-13.65c1.53.07,2.76,1,4.18,1.42l.09-.2-2.88-1.33c1.49-.16,2.78.58,4.16.88l.06-.17-2.91-1.06a.91.91,0,0,1,1.28-.32c.57.26,1.17.44,1.76.65l.08-.23-2.07-.75a1.74,1.74,0,0,1,1-.42,2.65,2.65,0,0,1,.86.29l0-.1-.36-.38a.56.56,0,0,1,.19-.07,3.08,3.08,0,0,1,2.3,2.12,2.3,2.3,0,0,1-1.06,2.47,2.32,2.32,0,0,0-.69.58,2.43,2.43,0,0,1-1.88,1.09,6.43,6.43,0,0,1-3.46-.75.49.49,0,0,1-.22-.37c0-.45,0-.91,0-1.35.91.3,1.7,1,2.8.9-.77-.34-1.53-.69-2.3-1-.93-.4-1.37-1-1.35-1.74.36.68,3.52,2.33,4.3,2.19C89,105.78,87.4,105.5,86.37,104.34Zm.58,4.21c.64.2,1.3.45,2,.61a3.53,3.53,0,0,0,3.81-1.06,1.73,1.73,0,0,1,.48-.36c2.17-1.19,2-3.84,0-5.1l-.58-.39,1.6-1.18a3.74,3.74,0,0,1,.75.86,13.81,13.81,0,0,0,2,2.93,2.73,2.73,0,0,1,.38,3,3.67,3.67,0,0,1-3.13,2.29,4.24,4.24,0,0,0-2.14.77,2.34,2.34,0,0,1-1.1.46C89,111.61,87.73,110.76,87,108.55Zm4.29-6.5a4.38,4.38,0,0,0-1.73.72c-1,.86-2.2.86-3.36,1.1a.4.4,0,0,1-.32-.08c-1-.92-2-1.85-2.92-2.76.28-.51.5-.89.72-1.28l2.11,2.49.18-.15c-.08-.12-.16-.24-.25-.35-.5-.61-1-1.22-1.49-1.84a1.54,1.54,0,0,1-.15-.5c.16.06.36.07.47.18.59.55,1.16,1.13,1.75,1.69a3.62,3.62,0,0,0,.56.37l.11-.13L84.5,99c.4-.51.75-.45,1.19,0,.69.66,1.45,1.25,2.18,1.87l.12-.13a26.18,26.18,0,0,0-2.53-2.52c.4,0,.7-.1.87,0,.8.53,1.58,1.11,2.36,1.67.19.14.35.31.53.47l.1-.14a9.46,9.46,0,0,0-2.55-2.37c1.56-.15,2.48,1.09,3.68,1.74a7.22,7.22,0,0,0-2.41-2,1.17,1.17,0,0,1,1.44,0c.64.46,1.3.91,1.94,1.36l.14-.16-2-1.61c1.18-.24,1.87.7,2.77,1.09l.08-.12c-.35-.3-.7-.6-1.06-.89l.1-.14,1.86,1.13-.4-.58.06-.1c.6.32,1.22.62,1.8,1,.4.25.59.64.17,1A9.68,9.68,0,0,1,91.24,102.05Zm13.06-8.57.12.19-2.56,2.25-1-1C102,94.42,103.4,94.54,104.3,93.48Zm-.66.08,0,.15c-1.06.34-2.1.71-3.18,1-.24.06-.57-.19-1-.36l2.41-1.5a3.65,3.65,0,0,0-.18.53,5.22,5.22,0,0,0-.07.57,2.7,2.7,0,0,0,.57,0C102.68,93.83,103.16,93.69,103.64,93.56Zm1-7c-1.19,1.34-1.78,3.2-3.25,4.31C101.28,88.5,102.52,87.15,104.68,86.53ZM101.92,91c.53-.63,1-1.29,1.5-2,.58-.86,1.11-1.74,1.67-2.62l.16.09a4.52,4.52,0,0,1-.3,1c-.53.93-1.09,1.84-1.66,2.74a9.6,9.6,0,0,0-1,1.4c-.43,1-1.4,1.34-2.21,1.88A7.94,7.94,0,0,1,101.92,91Zm-2.27-1.18c1,.25,1.1-.74,1.69-1a6.3,6.3,0,0,1-1.69,4.36Zm-1.27.56c.35-.57.76-1.13,1.1-1.62-.07,1.29-.14,2.62-.21,3.89-.29-.56-.61-1.14-.89-1.74A.65.65,0,0,1,98.38,90.37ZM93,88.55a5.45,5.45,0,0,0,1.89.76,4.51,4.51,0,0,1,3,1.89,5.88,5.88,0,0,1,1.08,3l-1.57-.57,1-.36c-.66-.34-1.32.61-1.94-.22l1.1-.38-.07-.19a2.15,2.15,0,0,0-.51.15,1.41,1.41,0,0,1-1.79-.14L97,91.55l-.1-.21a16.71,16.71,0,0,0-1.68.73c-.54.32-.92.11-1.42-.24l2.3-.75,0-.16c-.21,0-.43,0-.63.08-.6.18-1.19.39-1.8.55a2.73,2.73,0,0,1-.7,0l0-.17,2.15-.78L95,90.4a12.53,12.53,0,0,0-2.29.65c-.57.27-.86,0-1.33-.25l2.37-1.3-.11-.2c-.71.36-1.46.66-2.14,1.09a1.54,1.54,0,0,1-1.67-.07l2.06-1.06a3.39,3.39,0,0,0-2,.73,3,3,0,0,1-.68.24l-.06-.17,1.07-.59-.08-.17a10.28,10.28,0,0,0-1,.38c-.6.28-.59.29-1,0l1.1-.47-.06-.14a3.2,3.2,0,0,0-1,.3c-.74.57-1.29,0-1.94-.25a15.78,15.78,0,0,1,3.45-1.17A4.71,4.71,0,0,1,93,88.55Zm-6.39-.2-.91.77-1.2-.32v-.08ZM85.8,89.6c2.38.71,4.7,1.59,7,2.41a11.89,11.89,0,0,1,1.15.52,2.84,2.84,0,0,1-.83-.15c-2.59-.6-5.16-1.27-7.77-1.78A73.41,73.41,0,0,0,78,89.48c-4.17-.38-8.38-.25-12.52-1.08a1.24,1.24,0,0,1-1.15-1c1.46,0,2.92.2,4.36.13A50.67,50.67,0,0,1,85.8,89.6ZM63.85,86.32c6.78-1.11,13.55-.45,20.34.05-1.47.17-2.93.36-4.4.5s-2.74.26-4.1.3c-1,0-2-.15-3-.18-2.71,0-5.43-.08-8.14-.11C64.21,86.87,63.88,86.84,63.85,86.32ZM82.1,88.06a1.19,1.19,0,0,1-.65,0c-1-.18-2-.38-3.16-.61l6.22-.69,0,.11C83.73,87.28,82.92,87.69,82.1,88.06ZM84,85.65c-2.24-.09-4.49-.21-6.73-.31A62.6,62.6,0,0,1,87.59,84C86,85.74,86,85.74,84,85.65Zm-6.48-2.1c1.6-.07,3.2-.15,4.8-.18s3.14,0,4.71,0v.17c-.86.07-1.73.1-2.59.21-3,.37-6.07.84-9.12,1.14-3.91.38-7.82.63-11.82.94l-.4-1c1.62-.14,3.21-.25,4.79-.43s3.18-.48,4.78-.61S75.93,83.61,77.55,83.55Zm-14.44.67c4.58-2.74,9.27-5.11,14.79-5.8a5.44,5.44,0,0,1-.55.61c-1.51,1.17-3,2.35-4.54,3.47a3.56,3.56,0,0,1-1.53.7c-2.41.37-4.83.65-7.26,1C63.72,84.19,63.41,84.2,63.11,84.22ZM81.05,74.3c-.1.26-.19.53-.29.79a16.5,16.5,0,0,1-6.21,7.67,2.27,2.27,0,0,1-1.76.29C76.49,80.91,79.54,78.34,81.05,74.3Zm-2.86,3.6,0,.17-2.86.31v-.13ZM63.06,82.81a17.84,17.84,0,0,1,2.34-1.3,44.1,44.1,0,0,1,8.28-2.87l.44-.07a50.38,50.38,0,0,0-11.2,5.17l-.19-.07C62.84,83.37,62.85,83,63.06,82.81Zm.28-3.37a18.45,18.45,0,0,1,5.39-2.23,1.26,1.26,0,0,1,.24.05c-2.22,1-4.46,1.89-6.21,3.59A1.14,1.14,0,0,1,63.34,79.44Zm.19,8a6.27,6.27,0,0,1,.41.82,2.81,2.81,0,0,1-1.55,4A8.55,8.55,0,0,0,59,94.57,3.86,3.86,0,0,1,55.53,96a8,8,0,0,1-3.17-1.32.54.54,0,0,1-.25-.36c0-.46,0-.92-.06-1.4l2.44,1.37.12-.19-2.38-1.52v-.17c.18,0,.39-.13.54-.07.56.2,1.09.45,1.63.68.26.11.53.22.78.34l.68.35.12-.23-3.1-1.57a.66.66,0,0,1,.57-.15c1.12.37,2.23.76,3.35,1.14.34.12.68.22,1,.32l0-.17-4.58-1.66c.57-.78,1.17-.25,1.68-.19a13.37,13.37,0,0,1,1.75.39l0-.21-2.89-.83c.07-.2.15-.43.25-.68l3.1.7.06-.24-3-.83c.06-.27.11-.48.16-.68a13.25,13.25,0,0,0,4.59.56l-4.6-.89c0-.3,0-.5,0-.76l4.72.81,0-.26-4.8-1c0-.22,0-.44-.06-.71a8.92,8.92,0,0,0,3.82-.12l-3.87-.21c0-.39-.07-.71-.1-1.06l3.77,0v-.24l-3.71-.13c-.12-.91-.1-1,.74-1s1.9,0,2.85-.06l.82-.06v-.25l-4.3,0-.09-.12c.23-.15.44-.41.69-.44,1.22-.14,2.45-.23,3.68-.33l.43,0c-1.47-.57-2.95-.12-4.44-.14,1.28-.67,2.72-.64,4.08-.93l0-.26L55,81.55l-.1-.16c.24-.18.46-.45.73-.52.9-.23,1.82-.38,2.73-.56l.47-.13,0-.25-3.44.53a.72.72,0,0,1,.69-.81c.45-.08.9-.22,1.36-.32L58.86,79l0-.26-3.36.61c.74-1.19,2.11-.84,2.95-1.47l-.06-.21-2.73.68c0-.25-.09-.48-.13-.73l2.15-.74-.07-.23-2.22.58L55,76.59l2.14-.77L57,75.59l-2.25.63-.49-.59L56,75l-.08-.21a10.22,10.22,0,0,0-1.36.42c-.57.25-1,0-1.42-.41L55,74.21,54.9,74a11,11,0,0,0-1.73.48,1.49,1.49,0,0,1-1.46-.2l1.68-.87-.12-.22a11.25,11.25,0,0,0-1.61.75c-.49.32-.81.13-1.27-.2l1.43-1-.12-.19-1.6.92-.37-.44.92-.81-.12-.15-1,.65c-.45-.57.38-.42.43-.84l-.89.26-.65-.74c1.41-.08,2.67-.18,3.94-.23a4.28,4.28,0,0,1,2.77,1,12.9,12.9,0,0,1,1.44,1.22,12.75,12.75,0,0,0,3.26,2.53,3.62,3.62,0,0,1,2.12,3.67c0,.33,0,.66,0,1A12.29,12.29,0,0,0,63.53,87.46ZM61,72.55l-2.67-1.62c-.12-.07-.29-.16-.3-.27a.42.42,0,0,1,.18-.36,2.5,2.5,0,0,1,.87-.23,3.4,3.4,0,0,1,3.19,3.11c.06.48-.13.65-.57.71A5.26,5.26,0,0,1,58.44,73a.47.47,0,0,1-.22-.31c0-.44,0-.87-.06-1.5L61.08,73l.22-.16A2,2,0,0,0,61,72.55Zm1.45,5c-.12-.31-.25-.66-.13-.86a19.1,19.1,0,0,1,3.44-4.21,9.92,9.92,0,0,1,3.69-2.3A14.86,14.86,0,0,0,62.48,77.55Zm6.1-10.14,0-.16L67,66.47c1.6-1.07,3.65,0,4.45,2.58-1.35-.22-2.56-.35-3.75-.63A1.25,1.25,0,0,1,66.76,67C67.38,67.05,67.92,67.53,68.58,67.41Zm-7.09-2.63a10.87,10.87,0,0,1-1.19-1.16,2.69,2.69,0,0,1,.55-3.55c.13-.1.49-.14.54-.06A15.39,15.39,0,0,1,62.8,62.2a1.89,1.89,0,0,1-.61,2.4c-.08-1,0-2.08-1-2.82l.51,2.85ZM58,69.43c1.15-.76,2.3-1.52,3.47-2.24a5.69,5.69,0,0,1,4.8-.4A1.81,1.81,0,0,0,67.82,69a17.28,17.28,0,0,0,2.14.29c-3.66,1.35-6,4.06-7.95,7.08-1-.63-1.92-1.24-2.89-1.78a1.31,1.31,0,0,1-.77-1.12l.94.44a4.2,4.2,0,0,0,2.53.44c.82-.11,1-.42.94-1.23,0-.3-.1-.6-.16-.89-.37-1.65-2.64-3.51-4.85-2.38C57.84,69.71,57.89,69.51,58,69.43ZM53.1,64.37a.39.39,0,0,1,.34.19c.18.45.54.47.94.52.68.1,1.35.27,2.1.43a2.12,2.12,0,0,1-2.75,1,8.32,8.32,0,0,1-3.29-2C51.34,64.43,52.22,64.38,53.1,64.37ZM49.64,65a15.76,15.76,0,0,0,4.91,2.64A3.69,3.69,0,0,1,57.16,70c.33,1.14.47,2.33.7,3.5l-.17,0-2-1.78.49-.67L56,71l-.76.6-1-.59.68-.87-.11-.17c-.6.58-1.16,1.31-2.11.69l1.14-1.4-.16-.14a6.66,6.66,0,0,0-1,1.06,1.34,1.34,0,0,1-1.56.59l1.16-1.83-.17-.13a7,7,0,0,0-.83,1.16,1.6,1.6,0,0,1-1.9,1L50.86,69l-.18-.13-1.62,2a1,1,0,0,1-1.32.19A5.31,5.31,0,0,0,49,68.55c-.43.66-.8,1.17-1.12,1.72a.82.82,0,0,1-1.24.35L48,67.93l-.15-.09a4.41,4.41,0,0,0-.36.49,11.79,11.79,0,0,0-.94,1.7c-.26.68-.72.69-1.34.58l1.21-2.53-.21-.1c-.42.78-.9,1.53-1.25,2.34-.21.51-.53.6-1.09.63.39-.79.75-1.5,1.1-2.22l-.16-.09c-.23.36-.47.72-.69,1.09-.48.77-.57,1.86-1.8,2.06l.82-2.28-.21-.08c-.38,1.07-.77,2.13-1.14,3.15l-1.06.11,1-2.18-.18-.09c-.11.18-.23.35-.33.54-.25.48-.54,1-.75,1.45s-.66.59-1.21.66l1.35-2.54-.2-.12c-.36.61-.76,1.2-1.07,1.83-.62,1.21-.68,1.3-1.37,1.41l1.22-2.71L39,70.85c-.37.71-.73,1.42-1.12,2.12-.75,1.35-.88,1.49-1.51,1.72.24-1.11,1-2.08,1-3.27-.83,1.58-1.1,3.44-2.38,4.77l-.16-.06c.3-1.31.59-2.62.88-3.93l-.18,0a1.34,1.34,0,0,0-.17.31c-.24.92-.47,1.84-.69,2.77a11.53,11.53,0,0,1-.41,1.89c-.43,1-1,2-1.46,2.93a.93.93,0,0,1-.07-.35,21.63,21.63,0,0,1-.05-2.9,37,37,0,0,1,.84-5.45,5.09,5.09,0,0,1,4.47-4c.44-.06.88-.15,1.32-.22a7.81,7.81,0,0,0,3.48-1.41,12.67,12.67,0,0,1,1.77-1.08A4.49,4.49,0,0,1,49.64,65ZM44.71,53.23c.16-.39.37-.78.5-1.18a5.17,5.17,0,0,1,1-2.29c.42.64-.4,1.81.94,1.92.21,1.93-.07,4.47-.57,5.15-.43-1.14.39-2.14.26-3.33-.17.27-.3.5-.51.87v-2h-.26c-.07.58-.14,1.17-.23,1.86l-.51-.69-.13.08c.26.54.51,1.08.77,1.61l-.16.09-.46-.4L45.2,55a2.12,2.12,0,0,1,.68,2.13,5.78,5.78,0,0,1-1.27-3.55A.84.84,0,0,1,44.71,53.23Zm-5.12-9.51a6.48,6.48,0,0,1,1,.89,8,8,0,0,0,2.48,1.93,2.92,2.92,0,0,1,1.39,3.07l-.25-1-.2,0c.07.4,0,1,.25,1.17.49.39.25.77.25,1.17l-.17.06c-.39-.91-.77-1.81-1.15-2.72h-.07c0,.27,0,.54.06.89-.52-.57-1-1.09-1.42-1.56a2.07,2.07,0,0,0-1.9-.75.42.42,0,0,1-.36-.18,8.44,8.44,0,0,0-2.42-3.06A2.26,2.26,0,0,1,39.59,43.72Zm9.85-17.9a26.94,26.94,0,0,0-1.55,3.43c-.56,1.82-.9,3.71-1.35,5.56-.26,1.07-.24,2.24-1.08,3.12a14,14,0,0,1-3.2,2.52c-1.17.66-2.27,1.48-3.4,2.23a.84.84,0,0,1-.24.14l-1.86.38c.2-2,1.68-2,3.26-2-.89-.46-1.59-.09-2.32,0,.2-.59.47-.94,1.18-.89a16.61,16.61,0,0,0,2.23-.06,4.22,4.22,0,0,0,.69-.14l0-.14-3.36,0c.19-.58.19-.57.7-.58l3.41-.13V39l-3.73.1c.53-1.07,1.42-.66,2.1-.79a21.08,21.08,0,0,1,2.26-.2l0-.25L39.5,38l-.09-.14c.2-.13.38-.36.6-.39,1.05-.19,2.11-.33,3.17-.49a2.72,2.72,0,0,0,.49-.13l0-.22L40,37.12l-.06-.19a3.43,3.43,0,0,1,.68-.36c1-.24,1.9-.43,2.85-.65.19-.05.37-.12.56-.18L44,35.51l-3.4.65a1.44,1.44,0,0,1,1-1.13c1-.23,2-.5,2.94-.77A6,6,0,0,0,45.1,34L45,33.83l-3.53.81a1.83,1.83,0,0,1,1.55-1.26l1.62-.23c.22,0,.43-.08.64-.12l0-.23-2.66.26A1.59,1.59,0,0,1,44,32c.58,0,1.16-.16,1.74-.23l.81-.1v-.23l-2.82.2c.58-1.29,1.88-.92,2.82-1.3l0-.18-1.59.13c.34-1.11,1.42-.87,2.22-1.13l0-.17-1,0c.31-.82,1.13-.53,1.82-.93l-.89,0,2.32-2.26ZM48,26.58l-2.48,2.2c.06-.54.11-.94.16-1.33l-.2,0a7.89,7.89,0,0,0-.28,1.26,1.34,1.34,0,0,1-.71,1.11c.09-.66.16-1.23.23-1.8l-.21,0c-.09.52-.21,1-.26,1.55a1.57,1.57,0,0,1-.72,1.38c.08-.73.15-1.41.23-2.1l-.21,0c-.1.6-.25,1.19-.3,1.79a2,2,0,0,1-.82,1.66c.05-.92.09-1.77.13-2.61l-.16,0a3.9,3.9,0,0,0-.14.59c-.08.74-.09,1.49-.21,2.23a6.61,6.61,0,0,1-.41,1.18l-.2-.05c0-.8,0-1.59.07-2.39l-.16,0a2.17,2.17,0,0,0-.11.42,12.82,12.82,0,0,0-.12,2.05c0,.76-.44,1.2-.89,1.72l0-2.59a.79.79,0,0,0-.29.56c0,.74,0,1.49-.09,2.23a7.66,7.66,0,0,1-.28,1.24l-.2,0-.17-3h-.17a5.56,5.56,0,0,0-.08.7c0,.83.1,1.65.09,2.48a7.52,7.52,0,0,1-.24,1.22l-.19,0c-.14-1-.29-1.91-.43-2.86h-.17a6.12,6.12,0,0,0,0,.74c.08.75.21,1.48.26,2.23a5.81,5.81,0,0,1-.13,1.16h-.24l-.54-2.6h-.15a4.74,4.74,0,0,0,0,.84c.12.65.31,1.3.41,2a3.56,3.56,0,0,1-.09.91h-.19c-.17-.72-.34-1.44-.52-2.16l-.2,0c0,1.34,1,2.76-.27,4-.66-.5-1.27-1-.86-2.09A21.06,21.06,0,0,0,36,38c.31-1.2.62-2.4,1-3.57.13-.4.46-.93.79-1,.63-.15.82-.56,1.09-1,1.07-1.82,2.25-3.6,4.32-4.39C44.74,27.4,46.32,27.07,48,26.58Zm-5-3.47c.5,1,.42,1.21-.73,2.15C41.69,24.14,41.67,24.24,43,23.11Zm-1.23.57c-.19-.52-.37-1-.57-1.63l1.46.16C42.84,22.82,42.66,23.11,41.75,23.68Zm1.35-1.46c.62-.34,1,0,1.23.51l-1,0Zm.48,2.13c.3.81.47,1.47-.39,1.94-.19-.19-.41-.42-.71-.71ZM43.46,27l.37-.9.2.08C43.92,26.43,44.41,26.92,43.46,27Zm.84-1.38c.55.21.59.59.16,1.23C44.4,26.38,44.36,26,44.3,25.57Zm.43-.29c-.74-.05-.6-.71-.85-1.16C44.87,24.35,44.91,24.41,44.73,25.28Zm-.07-1.2c-.39-.31-1.16-.1-1.15-.91C44.47,22.85,44.76,23.07,44.66,24.08ZM48.37,2.43c.2-.17.54-.38.71,0a4,4,0,0,0,1.38,1.86.43.43,0,0,1,.12.21,7,7,0,0,1,.24,4.15l-.64-.12.31-1.33-.22-.07c-.13.35-.26.7-.38,1-.18.52-.4.38-.57.17l.51-2.11-.19,0c-.19.52-.37,1-.58,1.61a.86.86,0,0,1-.21-1.18A12.21,12.21,0,0,0,49.48,5l-.16,0c-.3.6-.59,1.2-.91,1.86L48,6.13c.17-.37.31-.69.45-1l-.12-.07-.6.83L47,5.63c.11-.32.22-.61.33-.91a3.75,3.75,0,0,0-.52.66,3.06,3.06,0,0,1-.58.44l-.12-.13c.14-.34.29-.67.44-1a.89.89,0,0,0-.47.42,3.85,3.85,0,0,0-.27.61c-.42-.65-.43-.67,0-1.09Q47.08,3.5,48.37,2.43ZM46.82,1l1.25.94-.72.57-.71-1.35Zm-.57.34A12.48,12.48,0,0,0,47,2.88l-1.47,1.5-.06,0c.23-.41.45-.83.67-1.24L46,3l-.89,1.36-.22-.07c.11-.36.21-.74.35-1.09s.33-.71.49-1.06l-.18-.08-1.2,2.19-.24-.16.72-1.61-.19-.09A9.1,9.1,0,0,0,44,3.7a.74.74,0,0,1-1,.57c.21-.59.42-1.16.63-1.73l-.18-.06C43.26,3,43,3.5,42.83,4a.72.72,0,0,1-.84.58c.16-.34.3-.66.49-1.09C41.72,3.89,42,4.93,41,5.05c.27-.48.5-.91.76-1.32A8.21,8.21,0,0,1,45,.72C45.64.36,46,.6,46.25,1.34Zm-12.45,11a6.13,6.13,0,0,1,.6-3.76c1.52-2,3.09-4,4.68-6a2.65,2.65,0,0,1,1.12-.81c.92-.34,1.88-.58,2.83-.85.16,0,.33-.05.68-.11a8.38,8.38,0,0,0-3,4,2.26,2.26,0,0,1-1.28,1.29c.28-.46.5-.83.73-1.19-1,.7-1.23,2-2.44,2.52L40,3.9a1.36,1.36,0,0,0-.66.53c-.67,1.05-1.31,2.12-2,3.18-.15.24-.33.46-.5.68l-.22-.15c.33-.79.67-1.59,1-2.38a.43.43,0,0,0-.32.2c-.28.61-.52,1.23-.82,1.82A3.16,3.16,0,0,1,36,8.4l-.14-.13.47-1.08L36,7.09Zm2.14,7.41c-.95.23-1.86.34-2.48-.66C34.79,18.65,35.36,18.8,35.94,19.7Zm-2.86-.54.85.78c-1.1.65-1.2.65-1.69.07ZM32,20.37l.55.32c-.42.3-.76.56-1.11.82l-.12-.05Zm-1.18,2c.68-.53,1.27-1,2-1.52C32.38,21.84,32.11,22.69,30.8,22.41Zm1.63-.22c.56-.61.54-1.67,1.72-1.81-.08.22-.13.37-.19.52a4.46,4.46,0,0,0-.22.5C33.47,22.35,33.47,22.35,32.43,22.19Zm1.44-.05a4.89,4.89,0,0,0,.33-.93c.13-.78.33-1,1.13-1C35.07,22.08,34.93,22,33.87,22.14Zm1.44-.61a5.66,5.66,0,0,1,.46-1.18.76.76,0,0,1,.73-.21,5.64,5.64,0,0,1,1,.77A1.88,1.88,0,0,1,35.31,21.53Zm3-.58a10.78,10.78,0,0,1,.2-4.39c.27-1.45.6-2.89.91-4.33a22.75,22.75,0,0,0-1.71,8.33,1.83,1.83,0,0,1-.48-.82,13.91,13.91,0,0,1,.32-5.18c.27-1.14.59-2.27.88-3.4a11.41,11.41,0,0,0-1.37,4.15c-.26,1.42-.28,2.89-.4,4.34a2.2,2.2,0,0,1-.46-1c-.28-2.07.34-4,.75-6,.12-.6.28-1.18.43-1.77l-.21,0a27,27,0,0,0-1.44,7.74,3.19,3.19,0,0,1-.42-3.15c.45-1.6,1-3.16,1.56-4.74,0-.12.05-.24.08-.37l-.18-.05a22.76,22.76,0,0,0-2.06,5.93c-.06-.12-.1-.17-.12-.23a8.78,8.78,0,0,1,.82-6.14c.2-.4.7-.92,1-.91a2.51,2.51,0,0,0,1.93-1,11.8,11.8,0,0,1,4.82-3.09c1.35-.4,1.51-.32,1.88,1a.89.89,0,0,0,1.18.74,2.49,2.49,0,0,0,.47-.12.87.87,0,0,1,1.18.45c.3.56.53,1.15.88,1.67a2.17,2.17,0,0,0,1,.83c1,.36,1.14.37,1.22,1.48a3.31,3.31,0,0,1-.07,1.26c-.51,1.55-1.1,3.06-1.63,4.6a4.86,4.86,0,0,1-1.78,2.33c-.76.58-1.55,1.12-2.35,1.63a16.82,16.82,0,0,1-1.52.79A41.85,41.85,0,0,0,49,13.61a.87.87,0,0,0-.45.39,45,45,0,0,1-5.52,7.28,3.51,3.51,0,0,1-.91.45c1.18-1.62,2.32-3.11,3.35-4.66a30.93,30.93,0,0,0,2.77-4.76.6.6,0,0,0-.35.26l-1.8,2.81A34.78,34.78,0,0,1,42,21.07a5.42,5.42,0,0,1-.7.54l-.13-.14c.53-.81,1.06-1.6,1.57-2.42s1-1.69,1.53-2.55.9-1.72,1.4-2.55c.91-1.53,1.18-2.12,1.13-2.73-.31.52-.58,1-.84,1.41-1.69,2.85-3.37,5.71-5.07,8.55-.08.13-.29.17-.43.25l-.22-.22Q42.83,16,45.4,10.74l-.18-.08a89.54,89.54,0,0,0-5.37,10.62,16.34,16.34,0,0,1,1.34-4.84c.63-1.56,1.35-3.08,2-4.62l-.16-.06a33.44,33.44,0,0,0-3.73,9.3c-.75,0-.47-.56-.4-.88.55-2.43,1.14-4.85,1.71-7.27.1-.41.16-.83.25-1.25l-.29-.06C39.86,14.69,39.11,17.77,38.34,21Zm.69.75.54.19-2.32,7-.14-.07C37.75,26.42,38.39,24.07,39,21.7ZM35.64,35.78c1.44-4.66,2.91-9.31,4.36-13.92.63,0,.88.23,1,.67.15.65.36,1.29.47,1.95a3,3,0,0,0,1.15,2.06,7,7,0,0,1,.65.67,7,7,0,0,0-3.15,2.47c-.63.89-1.15,1.86-1.73,2.78-.08.13-.2.33-.3.33-.93,0-1.22.69-1.49,1.37s-.55,1.51-.82,2.24C35.72,36.24,35.58,36,35.64,35.78Zm-3.87-3.69a1.14,1.14,0,0,0,.73.21.86.86,0,0,1,.87.41,10.66,10.66,0,0,1,2,4,3.41,3.41,0,0,1,.15,1.3c-.14.91-.39,1.81-.58,2.65-1.27-1.1-.55-2.58-.54-4l-.18,0-.33,2h-.18c-.64-1.1.06-2.37-.43-3.51-.06.84-.13,1.67-.19,2.51l-.18,0a3,3,0,0,1-.24-.75c-.07-.72-.09-1.45-.14-2.18a3.65,3.65,0,0,0-.13-.55l-.17,0c0,.85.05,1.7.07,2.58a1.38,1.38,0,0,1-.69-1.41c0-.79-.12-1.58-.18-2.37H31.2c0,.9.07,1.79.1,2.75a1.55,1.55,0,0,1-.85-1.47,12.16,12.16,0,0,0-.13-1.7,3,3,0,0,0-.17-.56l-.14.05c0,.82.09,1.64.15,2.57-1.12-1-.49-2.28-1.12-3.28,0,.69.05,1.37.08,2.18-1-.9-.3-2.11-.89-3l0,1.82c-1.05-.56-.68-1.64-1.06-2.46,0,.33-.05.66-.08,1.07L24.9,28.18A30.94,30.94,0,0,1,31.77,32.09ZM26.94,38a8.38,8.38,0,0,0-.64-2.38c-.94-2-.92-4.28-1.15-6.49.57.82,1.13,1.65,1.78,2.6l-1.31-.58-.07.15c.66.74,1.93.7,2.34,1.83L26.6,33l-.05.19c.68.46,1.87-.18,2.24,1l-1.5-.1,0,.2a6.09,6.09,0,0,0,1.11.17,1.67,1.67,0,0,1,1.59,1l-1.84-.13,0,.21c.54.08,1.08.18,1.63.24.76.08.94.19,1.34,1l-2.15-.39a.78.78,0,0,0,.48.45,5.44,5.44,0,0,0,1.43.21c.82,0,1.14.5,1.62,1.19L30,37.73c.5.54.83.7,2.11.72.72,0,.94.44,1.12,1.07L31.11,39c.15.15.23.3.35.34a4.4,4.4,0,0,0,1.49.42c.79,0,1,.4,1.29,1a25.79,25.79,0,0,1-2.66-.38,6.65,6.65,0,0,0-3.07-.11c-.12,0-.34,0-.38,0A6.85,6.85,0,0,1,26.94,38Zm-3,6.26a10.91,10.91,0,0,0,1.79-1.61,5.14,5.14,0,0,1,5.09-1.72c.84.18,1.67.32,2.51.45a4.51,4.51,0,0,1,3.11,2c-.54-.08-1-.12-1.42-.21a14,14,0,0,1-2.42-.56,6,6,0,0,0-5.94.82A9.06,9.06,0,0,0,23,48.62c-.06-.63-.17-1.27-.17-1.91A2.73,2.73,0,0,1,23.93,44.21Zm-5,4.34A13.25,13.25,0,0,0,20.12,47a3.08,3.08,0,0,1,2.26-1.44c.07,1,.13,2,.19,3a23.5,23.5,0,0,0-2.79.46c-1,.3-1.41,1.31-1.88,2.19A3.94,3.94,0,0,1,18.92,48.55ZM18.21,52c.36-1.82,1.16-2.38,3-2.61l.43-.06c1.4-.2,1.79,0,2.26,1.37a4.34,4.34,0,0,1,.16.47c.25,1.09.72,2,2.08,1.85-.21,1.08-.4,2.07-.6,3.07A8.92,8.92,0,0,0,27,63.51a9.75,9.75,0,0,0,3.84,3.07c-.26.55-.51,1.08-.75,1.61s-.6.74-1,.2c-1-1.24-2-2.52-3-3.79-.2-.26-.35-.56-.53-.84l-.17.12a21.07,21.07,0,0,0,3.57,4.9,1.22,1.22,0,0,1-1.56-.36A17.3,17.3,0,0,1,23.74,63c-.06-.14-.15-.28-.22-.42l-.14.08a16.87,16.87,0,0,0,3.73,6.15c-.65-.1-1.28-.18-1.65-.83l-3.74-6.7c-.1-.17-.19-.35-.28-.52l-.17.1A44,44,0,0,0,25,68.08a5.29,5.29,0,0,1-2.36-2.45c-.57-1.43-1.32-2.79-2-4.19-.18-.39-.32-.8-.48-1.2l-.15.06a32.33,32.33,0,0,0,1.87,4.83c-.48-.42-1-.86-1.44-1.27a7.69,7.69,0,0,1-2.91-6.26A30.86,30.86,0,0,1,18.21,52Zm-13,1.82c.69-.37,1.46-.61,2.16-1a2.67,2.67,0,0,0,1.05-.85,3.81,3.81,0,0,1,2.09-1.68c2.32-.75,4.49-.15,6.63.73.11,0,.27.18.27.27,0,.91,0,1.81,0,2.72l-.18,0-1.38-1.78-.16.13A18.76,18.76,0,0,0,16.9,54a1,1,0,0,1,.16,1.18l-3.53-3.53-.15.14c.74,1.18,1.88,2,2.71,3.16a3.9,3.9,0,0,1-1.34-.7c-.9-.78-1.75-1.62-2.62-2.44-.11-.1-.23-.17-.35-.26l-.15.17,2.89,2.81a1.37,1.37,0,0,1-.85-.21c-.94-.74-1.84-1.51-2.76-2.27-.15-.13-.32-.25-.48-.38l-.12.14c.46.44.91.89,1.39,1.32s1,.82,1.46,1.22l-.08.14a3.38,3.38,0,0,1-.79-.29c-.75-.48-1.47-1-2.2-1.49l-.36-.24-.14.18,2.19,1.77a9.74,9.74,0,0,1-1.35-.34,7.74,7.74,0,0,1-1.12-.7l-1-.65L8.19,53,10,54.29c-1,.37-1.64-.63-2.54-.54l1.11.64c-1,.39-1.69-.31-2.47-.58L6,53.94l.87.65-3,.89A2.46,2.46,0,0,1,5.19,53.77Zm6.67,5.8a8,8,0,0,0-7.31-1c-1.1.36-2.18.79-3.27,1.17a8,8,0,0,1-.86.2A3.65,3.65,0,0,1,2,57.34a8.37,8.37,0,0,0,1.39-1c.53-.63,1.24-.66,2-1l-1.4,1.53.14.13c1-.62,1.53-2,3.05-2-.49.49-.9.92-1.31,1.34l.13.13c1-.52,1.5-2,3-1.62-.6.61-1.2,1.21-1.79,1.82l.18.17,1.47-1.32c.94-.84,1.13-.92,1.71-.74a10,10,0,0,0-2,2.35c1.08-.8,1.73-2.14,3.21-2.37A10.88,10.88,0,0,0,10,57.43a.45.45,0,0,0,.29-.17c.61-.67,1.19-1.37,1.84-2a2.83,2.83,0,0,1,1-.42l0,.14c-.8.92-1.59,1.85-2.39,2.78l.17.17c.14-.13.29-.25.42-.39.72-.76,1.43-1.54,2.17-2.28.13-.14.4-.14.61-.2l0,.14-2,2.75.17.12a1.73,1.73,0,0,0,.24-.23c.58-.73,1.16-1.45,1.72-2.19a.84.84,0,0,1,1.31-.22l-2.06,2.51.16.13c.13-.13.28-.25.41-.39.55-.62,1.11-1.23,1.63-1.87.33-.41.63-.39,1-.07-.39.45-.77.87-1.12,1.31s-.64.88-.95,1.32l.15.12L16.92,56l.23.15c-.26.47-.49,1-.77,1.4s-.6.92-.91,1.38l.18.13,1.23-1.67c.36,1-.56,1.65-.61,2.55L17,58.87c.27.91.53,1.77.79,2.66-.13,0-.27.06-.41.07a5.15,5.15,0,0,1-.55,0A10.49,10.49,0,0,1,11.86,59.57Zm3.06,3.19-1.22-.52c0-.26.07-.51.11-.76C14.79,61.68,14.8,61.69,14.92,62.76Zm-1.33-.15c.4.15.81.28,1.2.45a.73.73,0,0,1,.38.33c.19.44.33.9.48,1.36-.5-.24-1-.46-1.51-.73A1.08,1.08,0,0,1,13.59,62.61Zm-.3,5.92h.43c.19.94.36,1.84.54,2.75L13,71.42C13.1,70.44,13.19,69.5,13.29,68.53Zm-9.58-.1,1.45.29-.76.54C4.18,69,4,68.77,3.71,68.43Zm.91,1.18c.75-1,1.62-.79,2.54-.64L5.58,70.43ZM6,70.47c1.71-1.58,2.19-1.94,3.27-1.53l-1.6,1.71Zm4,.41a1.89,1.89,0,0,1-2-.12c.42-.42.8-.84,1.2-1.22.65-.63.68-.62,1.5,0C10.44,70,10.33,70.71,10,70.88Zm1.51,1.9.76-.88-.12-.13-.84.74c-.69-.74.36-1.05.4-1.74l-.82.77a2.47,2.47,0,0,1,2-2.89c-.11.71-.24,1.4-.31,2.1a3.86,3.86,0,0,0,.07,1.17c.06.33.28.64.33,1A12.08,12.08,0,0,1,13,74.45Zm1.19,11.75a3.15,3.15,0,0,1-.85-2.21C12.34,83,13.06,83.54,12.67,84.53Zm.07-1.6c-1.13-1.16-1.09-1.48-.58-2.37C12.65,81.29,13.45,81.92,12.74,82.93Zm.39-1.49C12.6,80.61,12,79.81,11.56,79a1.76,1.76,0,0,1,.1-1.09,1.47,1.47,0,0,1,.24-.44c.45.75.87,1.51,1.36,2.23A1.29,1.29,0,0,1,13.13,81.44ZM13.88,80l-.21,0c-.4-1.07-.84-2.12-1.17-3.21-.06-.19.37-.52.58-.79a2.69,2.69,0,0,1,.47.56c.31.73.58,1.49.92,2.36Zm.84-1.57h-.16c-.23-.62-.45-1.24-.69-1.92l1.47.23Zm.41-2.55a10.1,10.1,0,0,1,.74-2.65,3.65,3.65,0,0,0,.61-2.73,5.62,5.62,0,0,1,.14-1.54,2.93,2.93,0,0,1,.39.14,1.78,1.78,0,0,1,.54,2.14,6.28,6.28,0,0,0-.44,2.31A2.45,2.45,0,0,1,15.13,75.86Zm2,1.3,1.25-1.71-.15-.13L17,76.8c.1-1,.9-1.53,1.39-2.26l-.17-.14-1.57,1.82-.11-.07,1.86-2.65-.05,0-.61.41c0-.37,0-.68,0-1.1.48.36,1.21.2,1.17,1.08a6.93,6.93,0,0,0,.3,1.45,1.18,1.18,0,0,1,0,.56c-.19.58-.41,1.15-.65,1.81Zm4.64.77-.2-.07.74-2-.21-.07c-.07.2-.14.41-.22.6-.22.52-.44,1-.69,1.56-.06.11-.22.18-.33.26a4.85,4.85,0,0,0,.56-2.84c-.16.49-.23,1-.38,1.51-.25.78-.57,1.15-1,1.14.29-.8.57-1.57.84-2.34l-.15,0-.94,2.23-.65-.23a2.63,2.63,0,0,1,1.38-2.25A8.29,8.29,0,0,0,22,74.08a5.68,5.68,0,0,1,2.26-1.59c.56.82.5,1-.38,1.51,0-.27-.08-.55-.13-.82h-.18c0,.55-.07,1.09-.11,1.64l-.15,0c-.07-.24-.13-.49-.19-.74l-.23,0C23.4,75.65,22.28,76.67,21.82,77.93Zm0,11.3A3.1,3.1,0,0,1,20.19,86,7.89,7.89,0,0,1,21,84a13.34,13.34,0,0,0,1.62-4.62,10.19,10.19,0,0,1,1.1-3.91,6.59,6.59,0,0,1,3.43-3.09c-.2.9-.4,1.82-.61,2.75l-.61-.22c.22.42.93.53.48,1.17l-1.22-.26-.06.17c.46.31,1.52.1,1.08,1.17l-1.65-.29,0,.21,1.63.48-.19.79-2.38-.19,0,.22,2.28.33,0,.23c-.44.51-1.18-.21-1.68.29l1.41.22c-.07.55-.26.82-.81.71a3,3,0,0,0-.84,0,5.12,5.12,0,0,0-.68.14l0,.14,1.78.1,0,.23c-.68.41-1.64.17-2.21.85l1.64-.29c-1.2,1.33-2.61,2.28-2.88,4.07s.78,3.12,1.64,4.72C22.67,89.72,22.2,89.51,21.78,89.23Zm7.73,7.84c-.33.1-.67.18-1,.25a2,2,0,0,1-2.31-.94,5.49,5.49,0,0,1-.78-3A8.48,8.48,0,0,0,24,89.24,19,19,0,0,1,22.74,87a4,4,0,0,1,1.45-4.71l.41,3-.83.45.07.15c.48,0,1-.55,1.45,0l-1.41.55.07.2c.39-.1.76-.21,1.15-.3.58-.12.62-.1,1,.47-.71.24-1.54.18-2.11.77.57,0,1.11-.19,1.66-.28s1.14-.36,1.61.28c-.46.13-.91.23-1.34.38s-.92.14-1.17.71c1.17-.26,2.19-1,3.39-.56-.79.56-1.8.68-2.39,1.52l2.55-1.08c-.43,1.24-1.77,1.21-2.2,2.19l1.67-1a1,1,0,0,1-.57,1.2,5.38,5.38,0,0,0-.92.87l.13.12,1.32-1a.89.89,0,0,1-.23,1.38,3.13,3.13,0,0,0-.53.66l.15.12,1.05-1c.22.26.39.48.57.68-1,1-1,1-1,1.38.67-.14.86-1.65,1.93-.67l-.94,1.06.16.14.62-.54c.62-.54.74-.53,1.3.08-.43.52-1.1.85-1.24,1.6a15.05,15.05,0,0,0,1.33-1.19c.33-.35.58-.26.82.09-1.11.94-1.11.94-1.08,1.37,1.47-1.38,1.61-1.26,1.89-.67l-.67,1,.15.11.85-.86c.13.17.25.33.36.46l-.51.85.12.09.57-.56c.48.33.42.72.07,1.23l.58-.23,1.23,2.17-.06,0C34.61,99.09,34,98.5,33.42,98A3.81,3.81,0,0,0,29.51,97.07Zm-.74,14.7a1.23,1.23,0,0,1-2.08.76,4.28,4.28,0,0,1-1.61-2.91,2.27,2.27,0,0,1,.63-2.11l1.36,3.32c.15-1.23-.69-2.22-.86-3.45l.66.35A3.76,3.76,0,0,1,28.77,111.77Zm9,2.39a1.23,1.23,0,0,1-1.68-.7,3.08,3.08,0,0,0-.51-.66l-.14.11.78,1.25-.14.13-1.4-1.37-.12.1c.27.37.55.74.87,1.19l-1.9-.17,0,.22,1.41.3-.36.44,1.63-.47,0,.15-.52.45c.68,0,1.16-.73,1.91-.4a25,25,0,0,1-2.51.9c-.38.11-.81.3-1.1-.23-.06-.1-.29-.14-.44-.16L31.93,115c-.37-.06-.65-.17-.63-.65,0-.16-.2-.39-.36-.47-.68-.35-1.38-.66-2.07-1l0-.18a2.06,2.06,0,0,1,.65-.26c.95,0,1.9,0,2.83.08.57.06,1,.06,1.18-.58,2,.5,4.18.88,4.8,2.13Zm6.13-2.11L39,113.92a9.83,9.83,0,0,0-1.75-1.37,24.13,24.13,0,0,0-3.13-1c-.47-.13-1-.22-1.22.42,0,.07-.21.12-.32.11-1.1,0-2.19-.1-3.22-.16a7.74,7.74,0,0,0-.11-1.7,4.18,4.18,0,0,0-2.72-3c-.16-.06-.4-.23-.41-.36-.06-.73-.22-1.49.64-2a5.7,5.7,0,0,0,1.15-1c1.08-1.09,2.14-2.2,3.21-3.31a1.41,1.41,0,0,1,.28,1.88A4.91,4.91,0,0,0,31,106a1.58,1.58,0,0,0,1.19,1.34c.83.11,1.19.74,1.71,1.21-.74.47-.74.64,0,1.16l.26.17,3.22,1.71c-.18.57-.09.75.62.79a15.72,15.72,0,0,0,2.17,0c1-.09,2-.26,3-.37a4.22,4.22,0,0,1,.71,0ZM32.62,101.61c.34.25.75.5.84.84a17.31,17.31,0,0,1,.58,3,1.36,1.36,0,0,1-1.34,1.39c-.62,0-1.11-.41-1.3-1.21A5.23,5.23,0,0,1,32,102a10.06,10.06,0,0,1,.9,3.51A8.23,8.23,0,0,0,32.62,101.61Zm9.1,8.65-.19.08-1.05-2-.16.08.56,1.38c-.92-.22-.89-1.24-1.57-1.62l.47,1.07-1.42-.59-.07.15.94.6-1.21.28c.88.33,1.9-.45,2.66.55l-1.19.24,0,.21c.35,0,.69-.09,1-.1s.68,0,1,0v.19l-1.35.22c.81.4,1.77-.39,2.55.55-1.67.06-3.23.63-4.95.27.39-.59,0-.69-.41-.85a13.2,13.2,0,0,1-1.33-.6c-.73-.41-1.45-.84-2.22-1.29.82-.49.83-.55.2-1.18l-.55-.57c.37-.36.73-.71,1.17-1.12.85.36,1.78.77,2.72,1.12.21.08.63.07.72-.06.38-.58.79-.3,1.21-.12s.54.29.81.41c.63.28,1.28.53,1.9.83,1.17.57,1.16,1.74,1.45,2.78-1.63-.16-1.48-1.66-2-2.63l-.15.07C41.45,109.18,41.59,109.72,41.72,110.26Zm2.71-.28a10.19,10.19,0,0,1,.16,1.57l-.23.15a3.68,3.68,0,0,1-.49-.7,9.06,9.06,0,0,1-.23-1.06A2.5,2.5,0,0,0,42,108c-1-.42-2-1-3-1.43a.81.81,0,0,0-1,.16.63.63,0,0,1-.5.16c-.92-.3-1.83-.65-2.58-.92-.22-1.08-.4-2.13-.66-3.15a2.29,2.29,0,0,0-1.6-1.62A1.1,1.1,0,0,1,32,99.29c.13-.16.27-.31.38-.47.29-.41.57-.43.94-.09A31.31,31.31,0,0,1,37,101.91a7,7,0,0,0,1.71,1.44,2.64,2.64,0,0,0,3.48-.11.48.48,0,0,1,.45,0c1.22.71,2.42,1.44,3.61,2.15C44.27,106.27,43.89,107.93,44.43,110Zm2.31,4.36a4.23,4.23,0,0,1-1.49-2.85,20.53,20.53,0,0,0-.31-2.34,2.83,2.83,0,0,1,1.53-3.33,3,3,0,0,1,1-.36c.68-.1,1.37-.13,2-.17,1-.07,1.9-.18,2.84-.17a7.3,7.3,0,0,0,3-.29.65.65,0,0,1,.53.11c.91.65,1.8,1.33,2.72,2-.18.47-.54.11-.83,0-.63-.32-1.24-.68-1.86-1l-.12.21,2.48,1.43c0,.45-.28.42-.61.3l-3.54-1.35a2.94,2.94,0,0,0,1.53,1c.6.23,1.21.44,1.82.66l-.07.18a19.14,19.14,0,0,1-4.34-1.29c1,.86,2.36,1,3.49,1.69a1.33,1.33,0,0,1-.8.09c-1.09-.33-2.16-.69-3.25-1-.15-.05-.31-.08-.47-.12,1,.94,2.33,1,3.49,1.57a14.35,14.35,0,0,1-5.31-1.4c.09.15.11.25.17.27l3.52,1.46,0,.11-4.47-1.38,0,.18,2.54.92c-1.36.59-2.35-.45-3.5-.56l-.07.18,2.07.92c-1,.43-1.79-.18-2.61-.12l0,.15,1.69.51c-.78.41-1.5-.07-2.24-.1l0,.17,1.73.53c-.1.23-.2.46-.33.73l-1.37-.34-.07.15c.25.12.52.21.76.35s.68,0,.5.61l-1.3-.47-.08.19c.34.16.66.36,1,.48s.51.34.37.74l-1.13-.12,0,.18,1.49.3a7.27,7.27,0,0,0-1,.54A.64.64,0,0,1,46.74,114.34Zm.12,11.41c-.85,1-1.79,2-3.3,1.83a8.08,8.08,0,0,0-.85,0c-.6,0-.7-.08-.53-.66a3.83,3.83,0,0,1,3.13-2.88c.73-.13.78-.12,1,.63l-1.31.87-1.24.87.13.19c.15-.08.31-.14.45-.23.65-.42,1.29-.86,1.94-1.26a.56.56,0,0,1,.49,0C46.85,125.33,47,125.65,46.86,125.75Zm2.52,1.06a7.14,7.14,0,0,1-2.69-2.57,3.17,3.17,0,0,1-.35-2.58,5.24,5.24,0,0,0,.06-2.58,4.69,4.69,0,0,1,0-1.79,4.12,4.12,0,0,1,2.56-2.87l.35.46-.73.08c.62.28,1.39.2,1.72.93l-1.36-.16c.47.6,1.5.11,1.83,1.08l-2.16-.2,0,.22,1.73.32c-.43.81-1.23.28-2,.58l1.13.24c-.33,1.11-1.23.4-1.87.76l1.15.21c-.17.94-1,.5-1.51.93l1,0,.11.17-1.15,1.05.1.11.54-.28a1.54,1.54,0,0,1-.7,1.75l.14.08.54-.28c.51.54-.1.88-.31,1.44l.76-.41c0,.51,0,.92,0,1.32h.15l.08-.4.17,0,.3,1.36C49.35,125.79,49.45,126,49.38,126.81Zm12.19,7.37a2.19,2.19,0,0,1-2,.84,4.11,4.11,0,0,1-2.94-1.55,11.51,11.51,0,0,0-4.18-3.16,3.6,3.6,0,0,1-2.28-3.5,5.94,5.94,0,0,0-.61-2c-.29-.71-.72-1.37-1-2.09-.85-2.41,1.44-5.18,3.11-5.74a4.16,4.16,0,0,1,.81-.12c-.1.92-.18,1.77-.27,2.57l-.9-.48-.08.15,1,.93-.49.77c-.55-.43-1.06-.83-1.58-1.22l-.13.15a8.92,8.92,0,0,0,1,.92c.54.35.57.77.3,1.35l-1.55-.57-.07.16,1.6.81q0,.47-.06,1l-1.71-.31c0,.19.08.31.18.33.4.12.83.18,1.23.31a2.68,2.68,0,0,1,.58.45l-1,.23,0,.17h.85c.28.55.28.55-.18,1.8l.83-.58.33.35c-.27.41-.5.76-.74,1.11l.16.1c1-1.06.83-1.06,1.45-.54L52.74,128c.65-.21.72-1.53,1.74-.69l-.84,1.36.19.13c.23-.32.48-.62.69-1s.63-.51,1-.09c-.31.64-.63,1.27-1,1.91l.18.09,1.18-1.89,1,.55c-.4.85-.79,1.66-1.18,2.47l.2.11a1.67,1.67,0,0,0,.25-.28c.29-.55.59-1.1.87-1.66.2-.39.44-.5.8-.18L57,131.21a11.41,11.41,0,0,0,1.11-1.94c.18-.4.4-.36.67-.22-.26,1.26-.52,2.48-.78,3.7l.23,0c.26-1,.61-2.09.77-3.16.1-.72.48-.76,1-.79a11,11,0,0,0-.19,3.69.39.39,0,0,0,.19-.25c.09-.9.15-1.81.27-2.71.07-.6.12-1.26.91-1.5l-.12,4h.29c.08-1.25.16-2.5.24-3.82,1.17.93.3,2.26.75,3.28h.18c0-.74.07-1.47.1-2.21l.19,0c.18.57.36,1.14.53,1.72l.13,0c0-.28,0-.56-.07-1,.45.36.8.64,1,.84-.62.68-1.21,1.3-1.78,1.95C62.28,133.24,61.94,133.72,61.57,134.18Zm4.91,2a1,1,0,0,1-.82,1.13c-.61.12-.52-.32-.54-.68,0-.13-.15-.27-.13-.39a1.08,1.08,0,0,1,.24-.66,2.9,2.9,0,0,1,.85-.35A7.84,7.84,0,0,1,66.48,136.23Zm5.4-3.22A2.75,2.75,0,0,1,70,134a15.41,15.41,0,0,0-4.37.75,6.14,6.14,0,0,1-3.37-.1l1.54-2.15.1.05-.18,1.36c.67-.69.17-1.83,1.15-2.42-.09.83-.17,1.59-.26,2.36l.23,0,.46-2.45.51.21c-.08.7-.16,1.33-.23,2l.2,0c.13-.61.26-1.21.39-1.79.46-.07.61.09.59.5a7.76,7.76,0,0,0,.06,1.07H67l.09-1.4c.43-.15.59,0,.65.44a8.06,8.06,0,0,0,.29,1.15c.48-.59-.49-1.37.46-1.8.12.51.21.92.31,1.34l.21,0c0-.46-.09-.92-.13-1.4l.55-.29.52,1.49c.41-.74-.74-1.57.34-2.17l.83,1.31c.1-.85-1-1.38-.16-2.11.39.35.73.67,1.19,1.1-.12-.78-1.11-1-.75-1.79l1.51,1.09.13-.17-1.07-1,1.43.38A4.57,4.57,0,0,1,71.88,133Zm-.06-4.44.35-.65,2.16.36,0-.21-2.11-.47.39-.77c1.72.45,1.72.45,2,.25l-1.9-.69c.09-.32.18-.62.29-1l2.14.46,0-.21-2.1-.62c.06-.24.11-.45.16-.68a3.92,3.92,0,0,0,2.33.21c-.53-.16-1.07-.24-1.59-.39-.77-.21-.78-.28-.35-1,.43.1.86.23,1.29.31,1,.16,1,.15,1.17-.05l-2.36-.61c.15-.33.26-.55.39-.84a10.86,10.86,0,0,0,1.2.42,8.65,8.65,0,0,0,1.14.13l0-.18-2.29-.61.21-.69,1.85.68.07-.17c-.5-.24-1-.5-1.5-.71a.55.55,0,0,1-.39-.8l1.17.52.08-.15c-.6-.53-1.64-.69-1.59-1.81l1.55.66.08-.16c-.86-.66-2.15-.77-2.69-2.1l1.27.63.08-.11-1-.82.12-.18a16.51,16.51,0,0,1,1.54.87,5.23,5.23,0,0,1,2.53,4.22c0,1.21-.16,2.43-.2,3.65A3.81,3.81,0,0,1,71.82,128.57ZM83.29,138.7c-1.1-.62-2.21-1.23-3.29-1.88a1.33,1.33,0,0,0-1.14-.22.83.83,0,0,1-.67-.16c-.55-.59-1.07-1.21-1.57-1.85a.91.91,0,0,0-1-.46.64.64,0,0,1-.51-.19,4.53,4.53,0,0,1-1.06-4.23l1.94-.54-1.12,2.07.2.11c.24-.38.47-.76.72-1.14s.5-.73.76-1.1a1,1,0,0,1,.09,1.63,3.71,3.71,0,0,0-.57,1,2.53,2.53,0,0,0-.13.62l.15,0,1.12-2a1.19,1.19,0,0,1,.27,1.5,6.92,6.92,0,0,0-.44,1.51.66.66,0,0,0,.06.33h.11c.23-.65.47-1.3.74-2,.19.33.36.58.49.85a1.85,1.85,0,0,1,.27.81c0,.54-.2,1.07-.28,1.61a5.45,5.45,0,0,0,0,.7h.16c.14-.68.29-1.37.45-2.13.79.78.3,1.77.64,2.55l.16,0V134.7l3.5,3.85Zm-.14-4a4.53,4.53,0,0,0,0,.74c.24.93.5,1.85.76,2.78l-.24.13c-1.19-1.3-2.37-2.61-3.55-3.91l.13-.12,2.19.79c-1-.74-2.49-.8-3.2-2.16L82,134.05l.09-.19a1.91,1.91,0,0,0-.34-.24c-.65-.3-1.3-.58-2-.86a1.69,1.69,0,0,1-1.21-1.31l2.84,1,.06-.15c-.78-.33-1.56-.67-2.35-1A1.8,1.8,0,0,1,77.87,130L81,131.15a.83.83,0,0,0-.43-.42c-.84-.36-1.68-.72-2.53-1.06a1.36,1.36,0,0,1-.94-1.14,7.91,7.91,0,0,0,2.87.92l0-.18-2.84-1,.48-.68a4.93,4.93,0,0,0,2.48.81l0-.16-2.38-.86.26-.71,1.82.45.07-.2-1.79-.55c.05-.92.09-1.78.14-2.73a18,18,0,0,1,3.55,3.82c.17.27.45.53,0,.88-.08.07,0,.39.06.56.16.37.38.72.57,1.08a16.91,16.91,0,0,1,1.36,4.8Zm2.08-2.24.27,0c-.1-1.08-.2-2.17-.31-3.38,1.69,1.19,1.57,3.17.53,5.4-.79-.49-1.65-.9-1.67-2a3,3,0,0,0-.19-.83,2.27,2.27,0,0,1,.87-2.67C84.9,130.06,85.06,131.23,85.23,132.41Zm-5.72-10.06c1.4,1.3,2.77,2.64,4.22,3.87a3.19,3.19,0,0,1,.93,2,.4.4,0,0,1-.09.25L83.31,130c-.19-.33-.43-.73-.64-1.14a.34.34,0,0,1,0-.31.72.72,0,0,0-.07-1c-.92-1.07-1.86-2.13-2.81-3.18-.37-.4-.81-.73-1.2-1.12s-.39-.62.09-.87a4,4,0,0,0,.45-.35C79.26,122.1,79.38,122.23,79.51,122.35Zm5.61-1a11.58,11.58,0,0,0-1.56,0,6.77,6.77,0,0,1-2.13-.29c-.59-.25-1.37-.79-1.46-1.31a5.72,5.72,0,0,0-2.08-3.47c-.44-.39-.82-.86-1.22-1.29l.07-.06,2.65,1.63c0,.32,0,.62.06.91h.16l.09-.7c.64.12.23.56.32.84a8.91,8.91,0,0,1,.16.9l.15,0c.07-.39.13-.78.2-1.18h.21c.12.89.23,1.79.34,2.69l.25,0-.11-2,.16,0c.2.84.39,1.68.58,2.51l.22,0c-.09-.64-.19-1.27-.28-1.93.68.08.54.61.66,1s.24.78.36,1.16l.2-.05c-.1-.54-.19-1.08-.29-1.62a.68.68,0,0,1,.83.64c.07.35.13.78.65.85l-.38-1.17.09,0,.68,1.12.16-.09c-.12-.32-.25-.65-.4-1l.69,0,.63.84.15-.11c-.11-.25-.22-.5-.34-.79L86,119l.56.87c.21-.52-.46-.93.07-1.34l.51.94.17-.09c0-.18-.11-.36-.18-.6l1.34,1.45C87.43,120.88,86.48,121.66,85.12,121.38ZM95,120.6a6.91,6.91,0,0,0-3-.33c-2,.55-3.35-.49-4.36-2a1.78,1.78,0,0,1-.39-1.29c.1-.71-.34-1.37-.19-2.14a4.93,4.93,0,0,0-.22-1.67.86.86,0,0,1,.5-1.1c.15.7.27,1.4.45,2.08s.41,1.34.62,2l.23-.06c-.35-1.68-1-3.31-.78-5.1a.9.9,0,0,1,.37.46c.45,1.3.86,2.62,1.32,3.92a4.66,4.66,0,0,0,.52.84l.1-.07-1.58-4.67a1.24,1.24,0,0,1,1.15,1.16,10.25,10.25,0,0,0,.48,1.7c.18.53.4,1.06.6,1.59l.2-.07c-.36-1.3-.73-2.6-1.1-3.9l.2-.08a15.09,15.09,0,0,0,2.68,3.94c-.74-1.26-1.47-2.53-2.23-3.85l.43-.06h.27c.91,1.55,1.5,3.26,2.91,4.43l-2.56-4.48.82-.35,2.88,4,.22-.15-2.81-4.1.68-.4,2.72,3.73.23-.16-2.46-3.59a.77.77,0,0,1,.65.18,13.31,13.31,0,0,1,1.06,1.41c.35.5.68,1,1,1.52l.21-.13-2-3.16.13-.13c1.17.42,1.35,1.89,2.44,2.43l-1.76-2.55c.28-.26.52-.3.75,0l.56.78.62,1,.2-.12c-.44-.71-.88-1.41-1.44-2.29.24.12.4.14.46.24a16.34,16.34,0,0,1,.9,1.43c.23.42.38.9.63,1.31a7.38,7.38,0,0,1,1.39,3.78A4,4,0,0,1,95,120.6Zm5-7a.52.52,0,0,1-.68-.27c-.75-1.29-1.52-2.57-2.28-3.83l3,2.06.15-.21a23.11,23.11,0,0,1-2.9-2.21l.12-.18,3.17,1.56.12-.24-3-1.64v-.19a1.64,1.64,0,0,1,.58,0c.41.1.81.27,1.22.4l1.21.34.07-.2-2.78-1c.09-.26.15-.42.21-.58l2.53.58a2,2,0,0,1,0-.24c-.68-.19-1.36-.4-2-.57-.48-.12-.64-.35-.44-.82l2,.07a1.93,1.93,0,0,0,0-.24A10,10,0,0,0,99,106c-.66,0-1-.27-1-.91l1.44,0c-.69-.51-1.75-.06-2.17-1.13l1.49.09,0-.18c-.88-.38-2.12,0-2.67-1.23l1.56.19c-.64-.56-1.69-.2-2.09-1.2l1.06-.07c-.71-.47-1.66,0-2-1a1.94,1.94,0,0,1,.71,0,27.64,27.64,0,0,1,2.88,1.31,6,6,0,0,1,3,3.28c.43,1.29.88,2.57,1.32,3.85a3.53,3.53,0,0,1,.13.54A3.89,3.89,0,0,1,100,113.59Zm9.24,3.37a8.33,8.33,0,0,0-3.26-1.63,17,17,0,0,1-4.12-2,4.36,4.36,0,0,0,.83-5.51l1.45-.81a6.24,6.24,0,0,0,3.11,2.22c1.63.58,3.23,1.22,4.84,1.86a8.34,8.34,0,0,1,3.69,2.79,1.05,1.05,0,0,1-.5,1.42.83.83,0,0,0-.44.38c-.3.75-.56,1.51-.81,2.2-.44-.3-.86-.82-1.33-.87A28.37,28.37,0,0,0,109.21,117Zm5.45.27c.54.63,1.3,1,1.53,1.79l-.87.35C114.91,118.74,114.32,118.19,114.66,117.23Zm.26,2.74c-1.28-.15-1.21-1.09-1.49-1.79a12.8,12.8,0,0,1,1.37,1.28C114.91,119.57,114.88,119.8,114.92,120Zm1.11-1.65c-.23-.79-1.62-.83-.85-2.1C115.57,116.91,116.44,117.23,116,118.32Zm-2.66,1c-.91-.25-1.05-1-1.21-1.8C113,117.42,113.3,117.82,113.37,119.28Zm-1.21-.66-1.63-1,0-.12,1.27-.15Zm-1.91-.68.09,0,1.63,1-1,.4Zm1.12,1.52c1.09-.43,1.57-.33,2.07.37C112.31,120.24,112.17,120.22,111.37,119.46Zm1.12,1.47c.24-.78.85-.73,1.26-.87.25-.08.61.16.91.25l0,.22Zm1.37,2.15-1,.23C113.09,122.62,113.2,122.59,113.86,123.08Zm-.65.55-.76.78C112.35,123.64,112.58,123.43,113.21,123.63Zm-.76,1.35,0-.13.94-.89c0,.29.09.5.13.76Zm1.16-.5c.07-.4.12-.74.2-1.2C114.34,124.06,114.32,124.16,113.61,124.48Zm-.42-2.13c.11-.73.71-.85,1.4-1-.11.44-.23.89-.35,1.37Zm1.26,1.58c-.17-.51-.43-.94.19-1.26l.35.67Zm8.86,1.52a6.21,6.21,0,0,0-.93-.18,13.32,13.32,0,0,1-5.64-1.51c-.24-.13-.66-.25-.66-.38,0-.7-.7-.93-.94-1.45,0-.11-.11-.22-.17-.34a10.38,10.38,0,0,0,2.55,1.88.36.36,0,0,0-.15-.23c-.69-.63-1.38-1.24-2.05-1.89a2,2,0,0,1-.29-.6l.2-.07c1.27,1.57,3.16,3,4,3-.53-.38-1-.7-1.49-1.07a14.56,14.56,0,0,1-1.3-1.18,2.73,2.73,0,0,1-1-1.52,8.84,8.84,0,0,0,2.88,2.32l-2.51-2.37c.55-.33.91-.35,1.28.06.69.78,1.24,1.73,2.29,2.12.49.18,1,.36,1.47.59A5,5,0,0,1,123.31,125.45Zm-3.15-4.77.07-.19-2.35-1,.09-.14a14.22,14.22,0,0,1,6.1,4c-.49.08-1.14.22-1.37,0a6.58,6.58,0,0,0-3.13-1.78,3.59,3.59,0,0,1-2-1.84Zm-3.6-1.71c-.36-1,.12-1.51.88-1.93C117.6,118.19,117.31,118.8,116.56,119Zm0-1.71-.15-.09c.24-.42.49-.85.78-1.37C117.55,116.69,117.55,116.7,116.57,117.26Zm.16-2.73c.56,1,.55,1-.1,1.54C116.66,115.59,116.7,115.12,116.73,114.53Zm-.26,0c-.09.8-.17,1.56-.27,2.49l-.86-1Zm-4.14-6.64a6.6,6.6,0,0,1,3.56,4.7c-.61-.67-1.19-1.41-1.86-2a20.67,20.67,0,0,0-6.9-4.08c-.57-.21-1.11-.53-1.67-.79l.09-.25a16.19,16.19,0,0,1,2.19.51C109.29,106.59,110.83,107.22,112.33,107.94Zm11.32-4.68c-2.93.6-5.84,1.34-8.79,1.69a63.25,63.25,0,0,1-7.29.06l-2.47,0c0-.31,0-.55.05-.83,1.23.05,2.4.12,3.57.16a41.84,41.84,0,0,0,10-.77c3.45-.71,7-1.15,10.44-1.71a4.38,4.38,0,0,1,.51,0Q126.68,102.63,123.65,103.26ZM140,104.58c.76.85,1.49,1.72,2.2,2.61a3.14,3.14,0,0,1,.75,2.06,16,16,0,0,0-6.78-6.07A4.45,4.45,0,0,1,140,104.58Zm2,3.89a30.68,30.68,0,0,1-3.66-2.16,32.71,32.71,0,0,1-3-3.09A15.48,15.48,0,0,1,142,108.47Zm.66-10.37c1-.42,2-.91,3-1.33a4.77,4.77,0,0,1,1.62-.47c1.13,0,2.26.11,3.45.19A37,37,0,0,1,140,100.23,6.66,6.66,0,0,1,142.65,98.1Zm7.14.32a4.26,4.26,0,0,1-3.12,1.57,8,8,0,0,0-3.41,1,2.88,2.88,0,0,1-3.29-.27c3.88-1.11,7.84-2,11.37-4.09C150.83,97.25,150.29,97.82,149.79,98.42ZM71.67,102a2.28,2.28,0,0,0-.22-.22l.09.22Zm-18-1.87-.21-.39c0,.16,0,.33.07.49ZM40.33,56.66c0,1.64,0,3.28,0,5A9.85,9.85,0,0,0,40.33,56.66Zm-12.42-.82a6,6,0,0,0,.77,3.66C28.43,58.28,28.18,57.13,27.91,55.84Zm3,3.51-.35-2.89h-.21a15.11,15.11,0,0,0,.34,2.92Zm1.73-1.75a3.19,3.19,0,0,0,.56,2.57C33.05,59.31,32.87,58.45,32.68,57.6Zm8.8.74h-.2c0,.61-.07,1.21-.1,1.82h.24ZM37.16,78l.13.19L39.1,76.9,39,76.73Zm4.38,10.7-.14-.17-1.33,1.07.16.19ZM38.07,76l.13.19,1.3-.88-.11-.18Zm3.6-63.36L44,8.71C43.08,9.26,41.54,11.94,41.67,12.6Zm4.84,6.23.24.2,2-2.59-.21-.17ZM41.28,9.14a2.15,2.15,0,0,0-.77,1.59l.17.07C40.87,10.3,41.05,9.79,41.28,9.14Zm6.11,56.07-1.82,1,.08.15C46.38,66.25,47.09,66.1,47.39,65.21Zm-22.63-4L23.5,56.83l-.24.08a37.15,37.15,0,0,0,1.27,4.38Zm5.13,6.47-2.07-2.47A4.15,4.15,0,0,0,29.89,67.69Zm-7.79-10a2.83,2.83,0,0,0,.42,2.59C22.38,59.36,22.24,58.52,22.1,57.65Zm-1.41-.82A2.25,2.25,0,0,0,21,59Zm64.83,53.76-2.78-1.19A3.56,3.56,0,0,0,85.52,110.59Zm-.6-2L83.41,108A1.19,1.19,0,0,0,84.92,108.56Zm11.78,7.57.89,1.69A1.61,1.61,0,0,0,96.7,116.13ZM89,117.48c0,.37,0,.77.44.93,0-.55-.09-1-.16-1.74A3.24,3.24,0,0,0,89,117.48Zm3.89,1L92,117.06A1.15,1.15,0,0,0,92.84,118.45Zm7.7-18.73L102,100c0-.08,0-.16.05-.23l-1.5-.29Zm-.47-1.25,1.5.27A1.07,1.07,0,0,0,100.07,98.47ZM48.54,84.84l-.68-.42.27-.32-1-.3C47.37,84.51,47.67,85,48.54,84.84Zm-2.16-3.57.77-1.62-.25-.13-.83,1.59Zm.93,4.07,1.51.33a2.93,2.93,0,0,1,0-.29l-1.51-.3ZM46.55,79a1.23,1.23,0,0,0-.94,1.35Zm.71,7.29,1.21.21c0-.07,0-.15.05-.23l-1.22-.22Zm32.93,8.33,1.53.87A1.36,1.36,0,0,0,80.19,94.62ZM78.37,96l1.17.77C79.64,96.32,79.3,96.06,78.37,96Zm41.16,27.09,1.5.69.09-.19-1.49-.73Zm.64-1.86-1.71-1-.14.23,1.71,1Z"/>
</svg>
